<svg version="1.2" xmlns="http://www.w3.org/2000/svg" viewBox="0 0 1567 324" width="1567" height="324">
	<title>Demant_pos-svg</title>
	<style>
		.s0 { fill: #ffffff } 
	</style>
	<path id="Layer" fill-rule="evenodd" class="s0" d="m1410.7 175.3c0.3 11.1-0.3 22.4-0.3 33.4q0 33.7 0 67.5 0 21.9 0 43.8h-38.7v-131.3c0-16.5-4.5-30.1-13.5-40.8-9-10.8-21.5-16.2-37.7-16.2h-61.9v188.2h-38.7v-224.5h109.4c28.8 0 54 12.5 68.5 37.9q2.8 4.8 5.1 9.9 2.2 5.1 3.8 10.4 1.6 5.3 2.6 10.7 1 5.5 1.4 11zm-650.1 12.6v133.3h-38.6v-131.1c0-16.5-4.6-30-13.5-40.8q-13.5-16.2-37.8-16.2h-54.8v188.1h-38.7v-224.5h102q5.1-0.1 10.2 0.5 5.1 0.5 10 1.7 5 1.2 9.7 3 4.8 1.8 9.3 4.3 4.2 2.3 8.1 5.1 3.9 2.8 7.4 6.1 3.5 3.3 6.6 7 3.1 3.8 5.7 7.8 1.7-2.7 3.7-5.2 1.9-2.6 4.1-4.9 2.1-2.4 4.4-4.6 2.4-2.2 4.9-4.2 2.2-1.8 4.6-3.4 2.4-1.6 4.8-3.1 2.5-1.5 5.1-2.7 2.6-1.3 5.3-2.4 2.4-1 4.9-1.9 2.5-0.9 5-1.7 2.6-0.8 5.1-1.5 2.6-0.7 5.2-1.2 2.3-0.5 4.7-0.8 2.3-0.4 4.7-0.6 2.4-0.2 4.7-0.3 2.4-0.1 4.8-0.1 4.5-0.1 9 0.3 4.5 0.4 8.9 1.3 4.4 0.8 8.7 2.1 4.4 1.3 8.5 3.1 3.7 1.5 7.3 3.4 3.6 1.9 6.9 4.2 3.3 2.3 6.4 4.9 3.1 2.5 5.9 5.4 2.8 3.1 5.3 6.4 2.4 3.4 4.5 6.9 2.1 3.6 3.8 7.4 1.7 3.7 3 7.6 1.6 4.6 2.7 9.2 1.1 4.7 1.9 9.4 0.7 4.8 1 9.6 0.4 4.8 0.3 9.6v136.8h-38.5v-133.7q-0.1-5.6-1-11-1-5.5-2.8-10.7-1.8-5.2-4.5-10-2.7-4.9-6.1-9.2-13.5-16.2-37.8-16.2-4.7-0.1-9.4 0.6-4.7 0.7-9.2 2.2-4.5 1.6-8.6 3.9-4.2 2.4-7.8 5.4-3 2.4-5.6 5.2-2.7 2.9-4.8 6-2.2 3.2-3.9 6.6-1.7 3.4-2.9 7.1-0.7 2.5-1.2 5-0.5 2.6-0.8 5.2-0.4 2.5-0.5 5.1-0.2 2.6-0.3 5.2zm336 128.9q-4.7 1.7-9.5 3-4.8 1.3-9.7 2.1-5 0.9-9.9 1.3-5 0.4-10 0.4-5.9 0-11.8-0.6-5.8-0.5-11.6-1.6-5.8-1.2-11.4-2.9-5.6-1.7-11.1-3.9-5.1-2.1-9.9-4.7-4.9-2.6-9.5-5.7-4.6-3-8.8-6.5-4.3-3.5-8.2-7.4-3.9-3.9-7.4-8.2-3.5-4.3-6.6-9-3.1-4.6-5.6-9.5-2.6-4.9-4.7-10.1-2.1-5.5-3.8-11.1-1.6-5.6-2.7-11.4-1-5.8-1.5-11.6-0.6-5.9-0.5-11.7 0-5.9 0.5-11.7 0.5-5.9 1.5-11.7 1.1-5.7 2.8-11.4 1.6-5.6 3.8-11 2-5.2 4.6-10.1 2.6-4.9 5.6-9.6 3.1-4.6 6.6-8.9 3.5-4.3 7.4-8.3 3.9-3.8 8.2-7.3 4.3-3.5 8.9-6.6 4.6-3 9.4-5.6 4.9-2.6 10-4.7 5.4-2.3 11-4 5.7-1.7 11.4-2.8 5.8-1.1 11.7-1.7 5.8-0.5 11.7-0.5 5 0 10 0.4 5 0.4 9.9 1.2 4.9 0.9 9.7 2.1 4.9 1.3 9.6 3 4.4 1.6 8.7 3.7 4.3 2 8.4 4.4 4 2.5 7.9 5.3 3.8 2.8 7.3 6v-22.5h38.7v224.6h-38.7v-22.5q-3.5 3.2-7.3 6-3.9 2.8-7.9 5.2-4.1 2.5-8.4 4.5-4.3 2-8.8 3.6zm-113.7-109.1q0 3.9 0.3 7.7 0.4 3.9 1 7.8 0.7 3.8 1.7 7.6 1 3.7 2.4 7.4c1.6 4.7 3.8 9.2 6.3 13.4 2.6 4.2 5.6 8.2 9 11.8 3.4 3.7 7.2 6.9 11.2 9.8 4.1 2.8 8.4 5.3 13 7.2q3.6 1.6 7.3 2.7 3.7 1.1 7.5 1.9 3.8 0.7 7.6 1 3.9 0.3 7.8 0.3 5.5 0.1 10.9-0.5 5.5-0.7 10.9-2 5.3-1.3 10.4-3.3 5.2-1.9 10-4.6 4.3-2.2 8.2-5 4-2.8 7.6-6 3.5-3.2 6.7-6.9 3.2-3.6 5.8-7.7v-86.2q-2.6-4-5.8-7.7-3.2-3.6-6.7-6.8-3.6-3.3-7.6-6-3.9-2.8-8.2-5.1-4.8-2.6-10-4.6-5.1-2-10.4-3.3-5.4-1.3-10.9-1.9-5.4-0.6-10.9-0.5-3.9-0.1-7.8 0.2-3.8 0.3-7.6 1.1-3.8 0.7-7.5 1.9-3.7 1.1-7.3 2.6c-4.6 2-8.9 4.4-13 7.3-4 2.8-7.8 6.1-11.2 9.7-3.4 3.6-6.4 7.6-9 11.8-2.5 4.3-4.7 8.8-6.3 13.4q-1.4 3.8-2.4 7.7-1 3.9-1.7 7.8-0.7 4-1 8-0.4 4-0.3 8zm477.3-112.5v-48.3l38.7-19.3v67.3h67.9l-8.5 35h-59.4v118.7c0 11.2 2.2 20.2 7.2 26.5 4.9 6.3 13.5 9.4 26.1 9.4h30.1v35.1h-34.2q-32.3 0-49.9-16.2-17.5-16.1-17.5-48.5v-124.5zm-924.1 110.4q0 1.4-0.1 2.9 0 1.4-0.1 2.9-0.1 1.4-0.2 2.9h-182.2c1.3 41.7 32.9 72.8 76.9 72.8 34.2 0 55.5-15.2 69.3-38.7l30.2 20.9c-20 32.4-53.8 52.8-100 52.8-68.9 0-115.1-50.2-115.1-115.4 0-64.8 48-115.4 115.6-115.4 58.2 0 105.3 40.4 105.7 111.4q0 1.4 0 2.9zm-39-22.4c-5.3-36.4-34.2-58.2-67.9-58.2-31.5 0-62.2 19.2-71.5 52.3-0.4 1.9-0.9 3.9-1.2 5.9zm-216.6-70.8q2.5 7.7 4.2 15.7 1.6 8 2.4 16.1 0.8 8.1 0.7 16.3 0.2 8.1-0.6 16.2-0.7 8.1-2.3 16.1-1.6 8-4 15.8-2.4 7.7-5.7 15.2c-4.1 9.6-9.3 18.7-15.3 27.3-6 8.6-12.9 16.5-20.4 23.7-7.6 7.2-15.9 13.6-24.8 19.1-8.9 5.6-18.3 10.2-28.1 13.9q-8.1 3.1-16.5 5.4-8.3 2.3-16.9 3.9-8.5 1.5-17.2 2.2-8.6 0.7-17.3 0.6h-74.6v-253.4h38.5v216.2l35.3 0.9q6.7 0.1 13.4-0.5 6.7-0.5 13.3-1.7 6.6-1.2 13.1-3 6.4-1.8 12.7-4.3 5.6-2.1 11-4.9 5.4-2.7 10.5-5.9 5.1-3.2 9.8-6.9 4.8-3.7 9.1-7.9 4.2-4.1 8-8.6 3.8-4.5 7.1-9.3 3.2-4.9 6-10.1 2.8-5.2 5-10.6 2.4-5.7 4.2-11.7 1.8-6 3-12.1 1.2-6.1 1.8-12.3 0.5-6.2 0.5-12.4 0-6.2-0.5-12.4-0.6-6.2-1.8-12.3-1.2-6.1-3-12.1-1.8-6-4.2-11.7-2.2-5.4-5-10.6-2.8-5.2-6-10.1-3.3-4.8-7.1-9.3-3.8-4.6-8-8.7-4.3-4.1-9.1-7.8-4.7-3.7-9.8-6.9-5.1-3.2-10.5-5.9-5.4-2.8-11-5-6.3-2.4-12.7-4.2-6.5-1.8-13.1-3-6.6-1.2-13.3-1.7-6.7-0.6-13.4-0.5h-118l9.3-38.2h108.7q8.7-0.1 17.5 0.6 8.7 0.7 17.3 2.3 8.6 1.5 17 3.8 8.5 2.4 16.7 5.5c9.7 3.7 19.1 8.3 28 13.9 8.8 5.5 17.1 11.9 24.7 19.1 7.6 7.2 14.4 15.1 20.4 23.7 6 8.5 11.1 17.7 15.3 27.3q3.3 7.4 5.7 15.2z"/>
</svg>