<svg width="161" height="55" viewBox="0 0 161 55" fill="none" xmlns="http://www.w3.org/2000/svg">
<g clip-path="url(#clip0_215_32733)">
<path d="M67.8499 37.0002H54.3999V13.4102H59.4899V32.7102H67.8499V37.0002Z" fill="white"/>
<path d="M82.6899 37.4401C81.213 37.4927 79.7422 37.225 78.3785 36.6554C77.0148 36.0857 75.7906 35.2277 74.7899 34.1401C72.6885 31.7776 71.5907 28.689 71.7299 25.5301C71.5819 22.227 72.6894 18.9902 74.8299 16.4701C75.8629 15.3258 77.1344 14.422 78.5546 13.8224C79.9749 13.2229 81.5094 12.9422 83.0499 13.0001C84.5164 12.9442 85.9772 13.2118 87.3287 13.7838C88.6802 14.3559 89.8892 15.2184 90.8699 16.3101C92.9418 18.7338 94.0143 21.8548 93.8699 25.0401C94.031 28.3269 92.9209 31.5497 90.7699 34.0401C89.7535 35.163 88.5033 36.0494 87.1073 36.6369C85.7112 37.2243 84.2034 37.4985 82.6899 37.4401ZM82.9099 17.5901C82.0831 17.5612 81.262 17.7379 80.5202 18.1044C79.7785 18.4709 79.1393 19.0158 78.6599 19.6901C77.5398 21.3206 76.988 23.2746 77.0899 25.2501C76.9773 27.2237 77.5301 29.178 78.6599 30.8001C79.5209 31.9069 80.7861 32.6266 82.1774 32.8009C83.5688 32.9753 84.9724 32.5902 86.0799 31.7301C86.4093 31.4791 86.7051 31.1867 86.9599 30.8601C88.079 29.2493 88.6216 27.3078 88.4999 25.3501C88.6156 23.333 88.0906 21.3309 86.9999 19.6301C86.5384 18.9926 85.9283 18.4772 85.2225 18.1287C84.5168 17.7802 83.7367 17.6091 82.9499 17.6301L82.9099 17.5901Z" fill="white"/>
<path d="M115.72 17.7402H109.28V37.0002H104.18V17.7402H97.77V13.4102H115.77L115.72 17.7402Z" fill="white"/>
<path d="M139.43 26.8002C139.43 33.9002 136.27 37.4468 129.95 37.4402C123.823 37.4402 120.757 33.9768 120.75 27.0502V13.4102H125.86V27.1102C125.86 30.9302 127.28 32.8402 130.14 32.8402C133 32.8402 134.34 31.0002 134.34 27.3102V13.4102H139.43V26.8002Z" fill="white"/>
<path d="M145.56 36.1203V30.8603C146.441 31.6397 147.458 32.2499 148.56 32.6603C149.592 33.0671 150.691 33.2741 151.8 33.2703C152.366 33.2824 152.931 33.2185 153.48 33.0803C153.908 32.9896 154.315 32.82 154.68 32.5803C154.978 32.3968 155.223 32.1381 155.39 31.8303C155.55 31.5394 155.633 31.2123 155.63 30.8803C155.63 30.4382 155.498 30.0063 155.25 29.6403C154.974 29.2542 154.636 28.9163 154.25 28.6403C153.76 28.2995 153.241 28.0017 152.7 27.7503C152.1 27.4603 151.46 27.1703 150.76 26.8803C149.23 26.2879 147.874 25.3178 146.82 24.0603C145.938 22.9168 145.479 21.5036 145.52 20.0603C145.49 18.9611 145.734 17.8717 146.23 16.8903C146.685 16.0162 147.348 15.2675 148.16 14.7103C149.004 14.1075 149.954 13.6698 150.96 13.4203C152.077 13.1493 153.221 13.0117 154.37 13.0103C155.414 13.0085 156.457 13.0821 157.49 13.2303C158.349 13.3696 159.191 13.6009 160 13.9203V18.8603C159.609 18.5896 159.198 18.3489 158.77 18.1403C158.322 17.9376 157.861 17.7639 157.39 17.6203C156.927 17.4896 156.456 17.3893 155.98 17.3203C155.54 17.2568 155.095 17.2234 154.65 17.2203C154.119 17.2168 153.589 17.2738 153.07 17.3903C152.65 17.4883 152.248 17.6538 151.88 17.8803C151.573 18.0655 151.313 18.3187 151.12 18.6203C150.938 18.9218 150.845 19.2682 150.85 19.6203C150.847 19.9981 150.951 20.3691 151.15 20.6903C151.377 21.0358 151.665 21.3373 152 21.5803C152.421 21.8933 152.87 22.1677 153.34 22.4003C153.87 22.6703 154.46 22.9503 155.12 23.2303C155.956 23.5982 156.768 24.019 157.55 24.4903C158.232 24.9115 158.858 25.419 159.41 26.0003C159.899 26.5484 160.288 27.1779 160.56 27.8603C160.842 28.6665 160.977 29.5165 160.96 30.3703C161.002 31.5187 160.758 32.6596 160.25 33.6903C159.795 34.5674 159.124 35.3142 158.3 35.8603C157.437 36.4418 156.469 36.8494 155.45 37.0603C154.317 37.3101 153.16 37.4308 152 37.4203C150.815 37.4305 149.632 37.3199 148.47 37.0903C147.456 36.9173 146.475 36.5902 145.56 36.1203Z" fill="white"/>
<path d="M62.09 47.4299C62.02 46.0599 61.94 44.4299 61.95 43.1799C61.63 44.3399 61.24 45.5599 60.76 46.9199L59.1 51.6899H58.18L56.66 46.9999C56.21 45.6099 55.83 44.3399 55.57 43.1699C55.57 44.3999 55.47 46.0499 55.39 47.5199L55.14 51.7399H54L54.65 41.8999H56.2L57.81 46.6599C58.2 47.8699 58.52 48.9499 58.76 49.9799C59 48.9799 59.33 47.8999 59.76 46.6599L61.44 41.8999H63L63.58 51.7399H62.36L62.09 47.4299Z" fill="white"/>
<path d="M68.0002 41.9102V51.7502H66.7402V41.9102H68.0002Z" fill="white"/>
<path d="M78.0802 51.4299C77.3004 51.7743 76.4519 51.9351 75.6002 51.8999C72.9402 51.8999 70.9502 50.1499 70.9502 46.8999C70.9502 43.6499 72.9502 41.7299 75.8602 41.7299C76.6278 41.6994 77.3917 41.8501 78.0902 42.1699L77.8002 43.1699C77.2067 42.8894 76.5566 42.7491 75.9002 42.7599C73.7002 42.7599 72.2302 44.2299 72.2302 46.8199C72.2302 49.2299 73.5602 50.8199 75.8502 50.8199C76.5396 50.8397 77.2242 50.6994 77.8502 50.4099L78.0802 51.4299Z" fill="white"/>
<path d="M81 42.0002C81.7725 41.8638 82.5556 41.7969 83.34 41.8002C84.3163 41.7018 85.2925 41.9889 86.06 42.6002C86.3714 42.9258 86.596 43.3243 86.7133 43.7593C86.8306 44.1942 86.8368 44.6517 86.7313 45.0896C86.6258 45.5276 86.4119 45.9321 86.1095 46.2659C85.807 46.5997 85.4255 46.8522 85 47.0002C85.3835 47.1856 85.7123 47.4674 85.9542 47.818C86.1961 48.1685 86.3428 48.5759 86.38 49.0002C86.5481 49.9179 86.7888 50.8208 87.1 51.7002H85.84C85.5497 50.9407 85.3385 50.1532 85.21 49.3502C84.93 47.9902 84.43 47.4802 83.32 47.4402H82.18V51.7002H81V42.0002ZM82.22 46.4902H83.46C83.7044 46.5225 83.9527 46.5061 84.1907 46.4421C84.4287 46.378 84.6517 46.2675 84.8469 46.117C85.0421 45.9664 85.2055 45.7788 85.3279 45.5648C85.4503 45.3508 85.5292 45.1148 85.56 44.8702C85.5705 44.7872 85.5705 44.7032 85.56 44.6202C85.56 43.3502 84.68 42.7902 83.4 42.7802C82.9973 42.7765 82.5953 42.8134 82.2 42.8902L82.22 46.4902Z" fill="white"/>
<path d="M97.9999 46.7302C97.9999 50.1202 95.9999 51.9102 93.6299 51.9102C91.2599 51.9102 89.3999 49.9102 89.3999 46.9102C89.3999 43.9102 91.2599 41.7402 93.7699 41.7402C96.2799 41.7402 97.9999 43.8602 97.9999 46.7302ZM90.6999 46.8902C90.6999 48.9902 91.7899 50.8902 93.6999 50.8902C95.6099 50.8902 96.6999 49.0302 96.6999 46.8002C96.6999 44.8002 95.6999 42.8002 93.6999 42.8002C91.6999 42.8002 90.6999 44.7302 90.6999 46.8602V46.8902Z" fill="white"/>
<path d="M100.74 50.21C101.401 50.6379 102.173 50.8638 102.96 50.86C104.2 50.86 104.96 50.17 104.96 49.18C104.96 48.19 104.45 47.73 103.18 47.18C101.65 46.61 100.7 45.78 100.7 44.39C100.721 43.6614 101.029 42.9708 101.558 42.4687C102.086 41.9666 102.792 41.6938 103.52 41.71H103.7C104.423 41.6877 105.14 41.8531 105.78 42.19L105.45 43.19C104.904 42.8813 104.287 42.7194 103.66 42.72C103.252 42.6628 102.838 42.7696 102.508 43.0169C102.178 43.2643 101.96 43.6321 101.9 44.04V44.2C101.9 45.12 102.47 45.57 103.77 46.1C105.36 46.74 106.17 47.54 106.17 48.99C106.17 50.44 105.09 51.82 102.88 51.82C102.034 51.8346 101.201 51.6167 100.47 51.19L100.74 50.21Z" fill="white"/>
<path d="M111.28 51.7502V47.5802L108.28 41.9102H109.67L111 44.6302C111.37 45.3702 111.64 45.9702 111.94 46.6302C112.2 45.9802 112.52 45.3402 112.88 44.6302L114.24 41.9102H115.62L112.47 47.5602V51.7502H111.28Z" fill="white"/>
<path d="M118 50.2102C118.652 50.6242 119.408 50.846 120.18 50.8502C121.42 50.8502 122.18 50.1602 122.18 49.1702C122.18 48.1802 121.67 47.7202 120.4 47.1702C118.87 46.6002 117.92 45.7702 117.92 44.3802C117.941 43.6517 118.249 42.961 118.778 42.4589C119.306 41.9568 120.011 41.6841 120.74 41.7002H120.92C121.643 41.678 122.36 41.8433 123 42.1802L122.67 43.1802C122.124 42.8715 121.507 42.7096 120.88 42.7102C120.677 42.6759 120.469 42.6822 120.269 42.7285C120.068 42.7749 119.879 42.8605 119.712 42.9804C119.544 43.1004 119.402 43.2522 119.294 43.4272C119.186 43.6022 119.113 43.797 119.08 44.0002V44.1602C119.08 45.0802 119.65 45.5302 120.95 46.0602C122.54 46.7002 123.35 47.5002 123.35 48.9502C123.35 50.4002 122.29 51.8202 120.07 51.8202C119.224 51.8348 118.391 51.6169 117.66 51.1902L118 50.2102Z" fill="white"/>
<path d="M128.19 43.0002H125.33V41.9102H132.33V43.0002H129.45V51.7602H128.22L128.19 43.0002Z" fill="white"/>
<path d="M139.61 47.1402H136V50.6902H140V51.7502H134.71V41.9102H139.79V43.0002H136V46.1102H139.66L139.61 47.1402Z" fill="white"/>
<path d="M151 47.4299C150.93 46.0599 150.84 44.4299 150.86 43.1799C150.54 44.3399 150.15 45.5599 149.68 46.9199L148.02 51.6899H147.02L145.44 46.9999C145 45.6099 144.62 44.3399 144.35 43.1699C144.35 44.3999 144.25 46.0499 144.16 47.5199L143.91 51.7399H142.75L143.41 41.8999H145L146.61 46.6599C147 47.8699 147.32 48.9499 147.55 49.9799H147.6C147.874 48.8563 148.208 47.7481 148.6 46.6599L150.27 41.8999H151.82L152.41 51.7399H151.2L151 47.4299Z" fill="white"/>
<path d="M155.44 50.21C156.092 50.6239 156.848 50.8457 157.62 50.85C158.86 50.85 159.62 50.16 159.62 49.17C159.62 48.18 159.12 47.72 157.85 47.17C156.31 46.6 155.36 45.77 155.36 44.38C155.37 44.0179 155.452 43.6615 155.6 43.3311C155.749 43.0008 155.961 42.703 156.225 42.4549C156.489 42.2068 156.799 42.0133 157.138 41.8855C157.477 41.7576 157.838 41.698 158.2 41.71H158.36C159.083 41.6877 159.8 41.8531 160.44 42.19L160.1 43.19C159.554 42.88 158.937 42.718 158.31 42.72C157.908 42.662 157.499 42.7633 157.17 43.0024C156.841 43.2415 156.619 43.5994 156.55 44V44.16C156.55 45.08 157.12 45.53 158.42 46.06C160.01 46.7 160.82 47.5 160.82 48.95C160.82 50.4 159.77 51.82 157.55 51.82C156.707 51.8333 155.877 51.6154 155.15 51.19L155.44 50.21Z" fill="white"/>
<path d="M26.6498 27.5399C20.9998 39.2099 23.9998 52.3699 23.9998 52.3699C23.9998 52.3699 36.1598 46.6099 41.8498 34.9999C47.5398 23.3899 44.5598 10.1699 44.5598 10.1699C44.5598 10.1699 32.3398 15.8599 26.6498 27.5399Z" stroke="white" stroke-width="2" stroke-miterlimit="10"/>
<path d="M4.48993 35.0001C10.1799 46.6601 22.3799 52.4201 22.3799 52.4201C22.3799 52.4201 25.3799 39.2601 19.6799 27.5901C13.9799 15.9201 1.77993 10.1201 1.77993 10.1201C1.77993 10.1201 -1.20007 23.2801 4.48993 35.0001Z" stroke="white" stroke-width="2" stroke-miterlimit="10"/>
<path d="M14.7197 26.9999C14.7197 40.9999 23.1697 52.3499 23.1697 52.3499C23.1697 52.3499 31.6197 40.9999 31.6197 26.9999C31.6197 12.9999 23.1697 1.66992 23.1697 1.66992C23.1697 1.66992 14.7197 12.9999 14.7197 26.9999Z" stroke="white" stroke-width="2" stroke-miterlimit="10"/>
</g>
<defs>
<clipPath id="clip0_215_32733">
<rect width="160.96" height="54.05" fill="white"/>
</clipPath>
</defs>
</svg>
