<?xml version="1.0" encoding="UTF-8"?>
<svg id="Layer_1" xmlns="http://www.w3.org/2000/svg" xmlns:xlink="http://www.w3.org/1999/xlink" version="1.1" viewBox="0 0 262.5 60.1">
  <!-- Generator: Adobe Illustrator 29.6.1, SVG Export Plug-In . SVG Version: 2.1.1 Build 9)  -->
  <defs>
    <style>
      .st0 {
        fill: url(#linear-gradient);
      }

      .st1 {
        fill: #fff;
      }
    </style>
    <linearGradient id="linear-gradient" x1="78.85" y1="4.69" x2="240.82" y2="4.69" gradientTransform="translate(0 59.89) scale(1 -1)" gradientUnits="userSpaceOnUse">
      <stop offset="0" stop-color="#f6b419"/>
      <stop offset=".47" stop-color="#d44a43"/>
      <stop offset="1" stop-color="#22b8c9"/>
    </linearGradient>
  </defs>
  <path class="st0" d="M79.13,57.23c.39.23,1,.43,1.63.43.78,0,1.22-.37,1.22-.92,0-.51-.34-.81-1.19-1.12-1.12-.4-1.83-.99-1.83-1.96,0-1.11.92-1.94,2.39-1.94.73,0,1.26.16,1.61.34l-.29.99c-.25-.13-.72-.32-1.35-.32-.78,0-1.11.41-1.11.81,0,.52.39.76,1.29,1.11,1.17.44,1.73,1.03,1.73,2,0,1.09-.82,2.03-2.55,2.03-.72,0-1.46-.2-1.83-.43l.28-1.02h0ZM91.9,55.82c-.04-.87-.09-1.92-.08-2.83h-.03c-.22.82-.5,1.73-.8,2.58l-.99,2.92h-.94l-.9-2.88c-.26-.86-.5-1.78-.68-2.62h-.02c-.03.88-.07,1.95-.12,2.87l-.15,2.71h-1.15l.45-6.74h1.62l.88,2.71c.24.79.45,1.59.62,2.34h.03c.18-.73.41-1.56.67-2.35l.93-2.7h1.6l.39,6.74h-1.2l-.13-2.75h0ZM97.64,56.66l-.58,1.91h-1.27l2.16-6.74h1.57l2.19,6.74h-1.33l-.61-1.91h-2.13ZM99.57,55.73l-.53-1.66c-.13-.41-.24-.87-.34-1.26h-.02c-.1.39-.21.86-.32,1.26l-.52,1.66h1.73ZM104.52,51.93c.47-.09,1.15-.15,1.86-.15.97,0,1.62.16,2.08.54.37.31.58.78.58,1.36,0,.87-.59,1.46-1.23,1.68v.03c.49.18.78.65.94,1.3.22.84.4,1.62.53,1.88h-1.26c-.1-.2-.27-.75-.45-1.59-.2-.88-.51-1.16-1.21-1.18h-.62v2.77h-1.22v-6.64h0ZM105.74,54.9h.73c.83,0,1.34-.44,1.34-1.11,0-.73-.51-1.08-1.31-1.08-.39,0-.64.03-.76.06v2.13ZM113.42,52.86h-1.92v-1.03h5.09v1.03h-1.94v5.71h-1.23v-5.71ZM119.24,58.57v-6.74h1.41l1.74,2.89c.44.75.84,1.53,1.15,2.26h.02c-.09-.9-.11-1.77-.11-2.8v-2.35h1.14v6.74h-1.28l-1.76-2.97c-.43-.74-.87-1.56-1.2-2.32h-.04c.05.88.07,1.77.07,2.88v2.41h-1.14ZM129.11,51.83v6.74h-1.23v-6.74h1.23ZM137.22,58.38c-.29.14-.93.3-1.75.3-2.14,0-3.44-1.34-3.44-3.4,0-2.22,1.55-3.56,3.61-3.56.81,0,1.38.17,1.63.3l-.26.98c-.32-.14-.77-.26-1.32-.26-1.37,0-2.36.86-2.36,2.48,0,1.49.86,2.43,2.35,2.43.49,0,1.01-.1,1.34-.24l.2.97h0ZM142.83,53.25v2.26h2.17v.78h-2.17v2.28h-.83v-2.28h-2.17v-.78h2.17v-2.26h.83ZM147.97,51.92c.55-.08,1.23-.14,1.96-.14,1.26,0,2.12.26,2.74.78.66.53,1.06,1.34,1.06,2.48,0,1.21-.41,2.1-1.05,2.68-.67.61-1.74.92-3.05.92-.71,0-1.25-.04-1.66-.09v-6.63h0ZM149.2,57.64c.17.03.43.03.68.03,1.6,0,2.55-.88,2.55-2.59,0-1.48-.85-2.34-2.39-2.34-.39,0-.66.03-.84.07v4.83h0ZM156.67,51.92c.45-.08,1.06-.14,1.88-.14.9,0,1.55.19,1.98.55.4.33.66.86.66,1.49s-.2,1.16-.57,1.52c-.5.49-1.26.73-2.13.73-.23,0-.43,0-.6-.05v2.55h-1.22v-6.65h0ZM157.89,55.05c.16.05.35.06.6.06.92,0,1.48-.46,1.48-1.24s-.52-1.14-1.37-1.14c-.34,0-.58.03-.71.06v2.26h0ZM165.35,51.83v3.93c0,1.32.55,1.93,1.38,1.93.89,0,1.42-.61,1.42-1.93v-3.93h1.23v3.85c0,2.08-1.07,3-2.69,3s-2.57-.87-2.57-2.99v-3.86h1.23,0ZM176.58,57.23c.39.23,1,.43,1.63.43.78,0,1.22-.37,1.22-.92,0-.51-.34-.81-1.19-1.12-1.12-.4-1.83-.99-1.83-1.96,0-1.11.92-1.94,2.39-1.94.73,0,1.26.16,1.61.34l-.29.99c-.25-.13-.72-.32-1.35-.32-.78,0-1.11.41-1.11.81,0,.52.39.76,1.29,1.11,1.17.44,1.73,1.03,1.73,2,0,1.09-.82,2.03-2.55,2.03-.72,0-1.46-.2-1.83-.43l.28-1.02h0ZM189.64,55.13c0,2.26-1.37,3.55-3.22,3.55s-3.11-1.46-3.11-3.43c0-2.08,1.31-3.54,3.21-3.54s3.12,1.49,3.12,3.42ZM184.61,55.22c0,1.38.69,2.47,1.87,2.47s1.86-1.11,1.86-2.52c0-1.27-.63-2.47-1.86-2.47s-1.87,1.13-1.87,2.52ZM192.57,51.83h1.23v5.71h2.77v1.03h-4v-6.74h0ZM200.26,51.83v3.93c0,1.32.55,1.93,1.38,1.93.89,0,1.42-.61,1.42-1.93v-3.93h1.23v3.85c0,2.08-1.07,3-2.69,3s-2.57-.87-2.57-2.99v-3.86h1.23,0ZM208.86,52.86h-1.92v-1.03h5.09v1.03h-1.94v5.71h-1.23v-5.71h0ZM215.92,51.83v6.74h-1.23v-6.74h1.23ZM225.18,55.13c0,2.26-1.37,3.55-3.22,3.55s-3.11-1.46-3.11-3.43c0-2.08,1.31-3.54,3.21-3.54s3.12,1.49,3.12,3.42ZM220.15,55.22c0,1.38.69,2.47,1.87,2.47s1.86-1.11,1.86-2.52c0-1.27-.63-2.47-1.86-2.47s-1.87,1.13-1.87,2.52ZM228.1,58.57v-6.74h1.41l1.74,2.89c.44.75.84,1.53,1.15,2.26h.02c-.09-.9-.11-1.77-.11-2.8v-2.35h1.14v6.74h-1.28l-1.76-2.97c-.43-.74-.87-1.56-1.2-2.32h-.04c.05.88.07,1.77.07,2.88v2.41h-1.14,0ZM236.72,57.23c.39.23,1,.43,1.63.43.78,0,1.22-.37,1.22-.92,0-.51-.34-.81-1.19-1.12-1.12-.4-1.83-.99-1.83-1.96,0-1.11.92-1.94,2.39-1.94.73,0,1.26.16,1.61.34l-.29.99c-.25-.13-.72-.32-1.35-.32-.78,0-1.11.41-1.11.81,0,.52.39.76,1.29,1.11,1.17.44,1.73,1.03,1.73,2,0,1.09-.82,2.03-2.55,2.03-.72,0-1.46-.2-1.83-.43l.28-1.02h0Z"/>
  <g>
    <path class="st1" d="M1.57,17.87c3.93-1.52,8.74-2.41,12.86-2.41,7.16,0,11.72,2.72,11.72,10.64v18.05h-6.21v-17.48c0-4.05-2.53-5.51-6.02-5.51-2.22,0-4.43.32-6.08.82v22.17H1.57v-26.29h0Z"/>
    <path class="st1" d="M48.57,25.35c0-3.04-2.28-4.43-5.38-4.43s-5.76.95-8.11,2.28v-5.45c2.47-1.39,5.64-2.28,9.12-2.28,6.14,0,10.52,2.53,10.52,9.57v18.56c-2.66.7-6.46,1.14-9.63,1.14-7.28,0-12.61-2.22-12.61-8.55,0-5.7,4.88-8.49,12.99-8.49h3.1v-2.34h0ZM48.57,31.87h-2.66c-4.37,0-7.22,1.27-7.22,4.12s2.66,4.05,6.46,4.05c.95,0,2.28-.13,3.42-.32v-7.86h0Z"/>
    <path class="st1" d="M62.76,17.68c2.85-1.2,7.1-2.22,11.34-2.22,9.38,0,15.46,5.19,15.46,14.32s-5.95,15.01-15.46,15.01c-2.03,0-3.99-.32-5.13-.76v11.53h-6.21V17.68h0ZM68.97,38.59c1.33.51,2.98.82,4.75.82,5.57,0,9.5-3.17,9.5-9.44,0-5.57-3.55-8.87-9.19-8.87-1.77,0-3.74.25-5.07.7v16.79h.01Z"/>
    <path class="st1" d="M110.2,25.35c0-3.04-2.28-4.43-5.38-4.43s-5.76.95-8.11,2.28v-5.45c2.47-1.39,5.64-2.28,9.12-2.28,6.14,0,10.52,2.53,10.52,9.57v18.56c-2.66.7-6.46,1.14-9.63,1.14-7.29,0-12.61-2.22-12.61-8.55,0-5.7,4.88-8.49,12.99-8.49h3.1v-2.34h0ZM110.2,31.87h-2.66c-4.37,0-7.22,1.27-7.22,4.12s2.66,4.05,6.46,4.05c.95,0,2.28-.13,3.42-.32v-7.86h0Z"/>
    <path class="st1" d="M128.26,17.05c2.47,0,4.43,1.96,4.43,4.37s-1.96,4.37-4.43,4.37-4.31-1.96-4.31-4.37,1.9-4.37,4.31-4.37ZM128.26,35.99c2.47,0,4.43,1.96,4.43,4.37s-1.96,4.37-4.43,4.37-4.31-1.96-4.31-4.37,1.9-4.37,4.31-4.37Z"/>
    <path class="st1" d="M136.87,16.1h4.24v-6.84h6.21v6.84h7.98v5.26h-7.98v13.37c0,3.36,1.46,4.5,3.86,4.5,1.84,0,3.42-.57,5.13-1.58v5.64c-1.84.95-4.12,1.52-6.78,1.52-4.56,0-8.43-2.28-8.43-8.68v-14.76h-4.24v-5.26h.01Z"/>
    <path class="st1" d="M166.07,31.56v.13c.38,5,4.69,7.73,9.06,7.73,3.86,0,6.65-.89,9.44-2.72v5.51c-2.53,1.77-6.27,2.6-9.88,2.6-8.74,0-14.7-5.57-14.7-14.44s5.83-14.89,13.56-14.89c8.17,0,12.04,5.26,12.04,12.92v3.17h-19.52ZM179.69,27.5c-.13-4.37-2.28-6.78-6.33-6.78-3.61,0-6.27,2.53-7.1,6.78h13.43Z"/>
    <path class="st1" d="M213.26,23.64c-2.34-1.84-4.81-2.6-7.41-2.6-5.07,0-9,3.23-9,9.12,0,5.58,3.8,9.12,9.25,9.12,2.79,0,5.19-.89,7.48-2.53v5.95c-2.6,1.46-5.32,2.09-8.3,2.09-8.55,0-14.76-5.64-14.76-14.63s6.52-14.7,14.76-14.7c3.1,0,5.51.7,7.98,2.09v6.08h0Z"/>
    <path class="st1" d="M220.23,1.09h6.27v15.71c1.58-.63,4.37-1.33,7.35-1.33,6.33,0,10.96,2.79,10.96,10.64v18.05h-6.21v-17.48c0-4.05-2.53-5.51-6.02-5.51-2.22,0-4.43.38-6.08.95v22.05h-6.27V1.09h0Z"/>
    <path class="st1" d="M260.33,37.76c0,6.21-2.91,11.47-6.4,13.87h-4.62c3.04-3.86,4.43-8.55,4.43-13.87h6.59ZM257.1,17.05c2.47,0,4.43,1.96,4.43,4.37s-1.96,4.37-4.43,4.37-4.31-1.96-4.31-4.37,1.9-4.37,4.31-4.37Z"/>
  </g>
</svg>