<svg xmlns="http://www.w3.org/2000/svg" width="149.106" height="31.792" viewBox="0 0 149.106 31.792">
  <g id="logo-png" transform="translate(-424.67 -170.079)">
    <path id="Tracé_24" data-name="Tracé 24" d="M424.67,170.079h21.867a4.029,4.029,0,0,1,2.852,1.555,4.8,4.8,0,0,1,.527,2.955c-.036,1.509.052,3.029-.039,4.536a3.139,3.139,0,0,1-1.93,2.507,5.7,5.7,0,0,1-2.494.361c-3.283-.014-6.564,0-9.847-.008,0-1.146,0-2.292.013-3.438,1.7-.056,3.418.148,5.1-.034a2.578,2.578,0,0,0,2.107-2.865,2.629,2.629,0,0,0-2.562-2.4c-2.154-.055-4.314,0-6.471-.019-.013,5.68,0,11.359-.008,17.038-3.037-.032-6.086.069-9.12-.05Z" transform="translate(0 0)" fill="#1a2863"/>
    <path id="Tracé_25" data-name="Tracé 25" d="M481.248,170.079H503.4a3.518,3.518,0,0,1,3.356,2.915c.047,1.95.018,3.907.015,5.857a3.321,3.321,0,0,1-3.029,3.083c-1.229.111-2.475.034-3.707.047,3.164,2.788,6.39,5.507,9.554,8.292-2.5,0-5.008-.013-7.512.008-3.229-2.743-6.419-5.534-9.63-8.3,0-1.146,0-2.289.005-3.435,1.684-.058,3.388.133,5.063-.027a2.6,2.6,0,0,0,2.195-2.9,2.666,2.666,0,0,0-2.676-2.377c-2.143-.04-4.289,0-6.434-.014-.008,5.68,0,11.362-.005,17.041q-4.68,0-9.362,0c.005-6.727-.028-13.465.018-20.192" transform="translate(-30.238 0)" fill="#1a2863"/>
    <path id="Tracé_26" data-name="Tracé 26" d="M545.487,170.079h18c.044,1.048.018,2.1.023,3.151-3.7,0-7.409.006-11.11-.005a3.259,3.259,0,0,0-2.439.735,2.862,2.862,0,0,0-.839,2.21c-.01,2.483.013,4.963-.008,7.443a3.693,3.693,0,0,0,.584,2.486,2.877,2.877,0,0,0,2.424,1.005c3.8,0,7.588-.005,11.391,0,0,1.055,0,2.114-.008,3.17q-8.678,0-17.355,0a4.291,4.291,0,0,1-3.25-1.21,2.8,2.8,0,0,1-.79-2.026c-.013-4.414.01-8.839-.011-13.255a3.447,3.447,0,0,1,.465-2.08,3.99,3.99,0,0,1,2.922-1.621" transform="translate(-62.788 0)" fill="#1a2863"/>
    <path id="Tracé_27" data-name="Tracé 27" d="M595.607,170.079h17.446q0,1.572,0,3.146c-3.99.037-8-.04-11.991.032a.79.79,0,0,0-.714,1.234,27.533,27.533,0,0,0,3.535,3.35c-2.624,0-5.247-.005-7.871,0-.943-.878-1.964-1.679-2.875-2.592a2.871,2.871,0,0,1-.548-3.218,3.78,3.78,0,0,1,3.016-1.955" transform="translate(-89.643 0)" fill="#1a2863"/>
    <path id="Tracé_28" data-name="Tracé 28" d="M639.732,170.079h22.8v3.143c-2.364.021-4.728,0-7.092.011q0,2.3,0,4.605-4.43,0-8.858,0c0-1.536,0-3.072,0-4.61q-3.437,0-6.874,0c0-1.05-.021-2.1.021-3.151" transform="translate(-114.978 0)" fill="#1a2863"/>
    <path id="Tracé_29" data-name="Tracé 29" d="M697.518,170.079h16.57c2.364.4,3.463,2.714,3.629,4.942v2.833c-2.655.005-5.307,0-7.961,0-.026-1.021.166-2.3-.434-3.181a3.307,3.307,0,0,0-2.738-1.44c-1.449-.045-2.9-.13-3.982,1.037-.979,1.011-.73,2.289-.761,3.584q-3.978,0-7.959,0c.044-1.831-.2-3.531.6-5.234a4.1,4.1,0,0,1,3.034-2.541" transform="translate(-143.942 0)" fill="#1a2863"/>
    <path id="Tracé_30" data-name="Tracé 30" d="M564.073,188.316c1.842.032,3.683-.069,5.525-.011,3.639.074,7.276-.069,10.913.014,7.7-.08,15.412.047,23.116-.024,14.882.032,29.811-.032,44.685.035v3.382q-42.118.032-84.24.011v-3.406" transform="translate(-74.537 -9.736)" fill="#1a2863"/>
    <path id="Tracé_31" data-name="Tracé 31" d="M703.288,224.539c.425.008.851-.018,1.276,0,.841.02,1.681-.018,2.521,0,1.78-.02,3.561.013,5.34-.006,3.438.008,6.887-.008,10.323.009v.889q-9.729.008-19.46,0v-.895" transform="translate(-148.973 -29.115)" fill="#1a2863"/>
    <path id="Tracé_32" data-name="Tracé 32" d="M425.481,224.539c.425.008.851-.018,1.276,0,.841.02,1.681-.018,2.521,0,1.78-.02,3.561.013,5.34-.006,3.438.008,6.887-.008,10.323.009v.889q-9.729.008-19.46,0v-.895" transform="translate(-0.434 -29.115)" fill="#1a2863"/>
    <path id="Tracé_33" data-name="Tracé 33" d="M601.7,197.226h7.858c.94.862,1.982,1.65,2.834,2.6a2.839,2.839,0,0,1-.205,3.8,4.3,4.3,0,0,1-3.317,1.159q-8.268-.012-16.545,0c-.005-1.056,0-2.114-.005-3.17,3.793,0,7.567-.006,11.355.005.468-.034,1.128.053,1.374-.464.317-.456-.083-.806-.34-1.167a38.929,38.929,0,0,0-3.008-2.764" transform="translate(-89.64 -14.515)" fill="#1a2863"/>
    <path id="Tracé_34" data-name="Tracé 34" d="M654.488,197.225q4.434,0,8.863,0c-.016,2.52,0,5.04-.011,7.56q-4.422,0-8.847,0c-.005-2.52,0-5.04-.005-7.56" transform="translate(-122.881 -14.514)" fill="#1a2863"/>
    <path id="Tracé_35" data-name="Tracé 35" d="M693.9,197.225q3.971,0,7.946,0c.028,1.021-.138,2.186.517,3.048a3.237,3.237,0,0,0,2.6,1.335c1.507.047,3.084.156,4.154-1.135.826-.968.629-2.061.654-3.247,2.652,0,5.3-.005,7.957,0v2.737a5.777,5.777,0,0,1-2.114,4.21,4.082,4.082,0,0,1-2.559.615c-5.032-.024-10.076.013-15.106-.016a3.867,3.867,0,0,1-3.462-2.555c-.774-1.65-.551-3.226-.587-4.995" transform="translate(-143.95 -14.514)" fill="#1a2863"/>
    <path id="Tracé_36" data-name="Tracé 36" d="M481.5,219.8h-2.715v1.627h2.636v.96h-2.636v2.263H481.5v.96H477.76v-6.771H481.5Z" transform="translate(-28.386 -26.07)" fill="#1a2863"/>
    <path id="Tracé_37" data-name="Tracé 37" d="M499.6,224.073h.991v.395a1.617,1.617,0,0,1,1.167-.513,1.474,1.474,0,0,1,1.162.469,1.922,1.922,0,0,1,.36,1.3v2.618h-.991v-2.386a1.567,1.567,0,0,0-.175-.873.708.708,0,0,0-.623-.246.761.761,0,0,0-.7.325,2.233,2.233,0,0,0-.2,1.118v2.061H499.6Z" transform="translate(-40.063 -28.807)" fill="#1a2863"/>
    <path id="Tracé_38" data-name="Tracé 38" d="M524.467,226.217a1.439,1.439,0,0,0-.333-1,1.1,1.1,0,0,0-.864-.382,1.063,1.063,0,0,0-.886.417,1.718,1.718,0,0,0,0,1.921,1.064,1.064,0,0,0,.886.408,1.083,1.083,0,0,0,.895-.412,1.469,1.469,0,0,0,.3-.956m.947,2.026c0,.2-.007.379-.02.533a3.812,3.812,0,0,1-.055.406,1.805,1.805,0,0,1-.412.829,2,2,0,0,1-1.592.667,2.124,2.124,0,0,1-1.408-.461,1.882,1.882,0,0,1-.658-1.311h.991a1.12,1.12,0,0,0,.189.487,1.059,1.059,0,0,0,.894.4q1.083,0,1.083-1.329v-.6a1.843,1.843,0,0,1-1.355.6,1.82,1.82,0,0,1-1.43-.632,2.34,2.34,0,0,1-.561-1.6,2.465,2.465,0,0,1,.522-1.588,1.814,1.814,0,0,1,1.482-.693,1.722,1.722,0,0,1,1.342.6v-.482h.987Z" transform="translate(-51.55 -28.806)" fill="#1a2863"/>
    <path id="Tracé_39" data-name="Tracé 39" d="M545.216,225.709h-.987v-4.272h.987Zm-1.136-6.048a.644.644,0,0,1,.64-.636.62.62,0,0,1,.456.189.607.607,0,0,1,.189.451.622.622,0,0,1-.189.456.607.607,0,0,1-.452.188.643.643,0,0,1-.644-.649" transform="translate(-63.847 -26.171)" fill="#1a2863"/>
    <path id="Tracé_40" data-name="Tracé 40" d="M560.538,224.073h.991v.395a1.617,1.617,0,0,1,1.167-.513,1.474,1.474,0,0,1,1.162.469,1.922,1.922,0,0,1,.36,1.3v2.618h-.991v-2.386a1.567,1.567,0,0,0-.175-.873.708.708,0,0,0-.623-.246.761.761,0,0,0-.7.325,2.233,2.233,0,0,0-.2,1.118v2.061h-.991Z" transform="translate(-72.647 -28.807)" fill="#1a2863"/>
    <path id="Tracé_41" data-name="Tracé 41" d="M585.1,225.635a.946.946,0,0,0-1-.79,1.026,1.026,0,0,0-.337.055.972.972,0,0,0-.288.158,1.013,1.013,0,0,0-.221.248,1.145,1.145,0,0,0-.14.329Zm1.013.807H583.05a1.3,1.3,0,0,0,.342.838,1.044,1.044,0,0,0,.777.307,1.012,1.012,0,0,0,.61-.175,2.5,2.5,0,0,0,.539-.649l.833.465a3.329,3.329,0,0,1-.408.564,2.176,2.176,0,0,1-.461.386,1.86,1.86,0,0,1-.53.221,2.6,2.6,0,0,1-.618.07,2.011,2.011,0,0,1-1.535-.614,2.3,2.3,0,0,1-.579-1.64,2.365,2.365,0,0,1,.562-1.64,2.139,2.139,0,0,1,2.991-.018,2.364,2.364,0,0,1,.543,1.653Z" transform="translate(-84.132 -28.807)" fill="#1a2863"/>
    <path id="Tracé_42" data-name="Tracé 42" d="M607.107,225.635a.946.946,0,0,0-1-.79,1.026,1.026,0,0,0-.337.055.977.977,0,0,0-.288.158,1.011,1.011,0,0,0-.221.248,1.147,1.147,0,0,0-.14.329Zm1.013.807h-3.061a1.3,1.3,0,0,0,.342.838,1.043,1.043,0,0,0,.777.307,1.012,1.012,0,0,0,.61-.175,2.5,2.5,0,0,0,.539-.649l.833.465a3.329,3.329,0,0,1-.408.564,2.173,2.173,0,0,1-.46.386,1.862,1.862,0,0,1-.531.221,2.6,2.6,0,0,1-.618.07,2.01,2.01,0,0,1-1.535-.614,2.3,2.3,0,0,1-.579-1.64,2.365,2.365,0,0,1,.562-1.64,2.139,2.139,0,0,1,2.991-.018,2.364,2.364,0,0,1,.543,1.653Z" transform="translate(-95.9 -28.807)" fill="#1a2863"/>
    <path id="Tracé_43" data-name="Tracé 43" d="M626.471,224.073h.987v.382a1.891,1.891,0,0,1,.482-.39,1.108,1.108,0,0,1,.509-.109,1.6,1.6,0,0,1,.816.254l-.452.9a.943.943,0,0,0-.548-.2q-.807,0-.807,1.219v2.215h-.987Z" transform="translate(-107.9 -28.807)" fill="#1a2863"/>
    <path id="Tracé_44" data-name="Tracé 44" d="M646.129,225.709h-.987v-4.272h.987Zm-1.136-6.048a.644.644,0,0,1,.64-.636.62.62,0,0,1,.456.189.607.607,0,0,1,.189.451.622.622,0,0,1-.189.456.607.607,0,0,1-.452.188.644.644,0,0,1-.644-.649" transform="translate(-117.804 -26.171)" fill="#1a2863"/>
    <path id="Tracé_45" data-name="Tracé 45" d="M661.451,224.073h.991v.395a1.617,1.617,0,0,1,1.167-.513,1.474,1.474,0,0,1,1.162.469,1.922,1.922,0,0,1,.36,1.3v2.618h-.991v-2.386a1.567,1.567,0,0,0-.175-.873.708.708,0,0,0-.623-.246.761.761,0,0,0-.7.325,2.234,2.234,0,0,0-.2,1.118v2.061h-.991Z" transform="translate(-126.604 -28.807)" fill="#1a2863"/>
    <path id="Tracé_46" data-name="Tracé 46" d="M686.319,226.217a1.439,1.439,0,0,0-.333-1,1.1,1.1,0,0,0-.864-.382,1.063,1.063,0,0,0-.886.417,1.717,1.717,0,0,0,0,1.921,1.064,1.064,0,0,0,.886.408,1.083,1.083,0,0,0,.895-.412,1.469,1.469,0,0,0,.3-.956m.947,2.026c0,.2-.006.379-.02.533a3.684,3.684,0,0,1-.054.406,1.81,1.81,0,0,1-.412.829,2,2,0,0,1-1.592.667,2.124,2.124,0,0,1-1.408-.461,1.882,1.882,0,0,1-.658-1.311h.991a1.119,1.119,0,0,0,.189.487,1.058,1.058,0,0,0,.894.4q1.083,0,1.083-1.329v-.6a1.843,1.843,0,0,1-1.355.6,1.821,1.821,0,0,1-1.43-.632,2.34,2.34,0,0,1-.561-1.6,2.465,2.465,0,0,1,.522-1.588,1.814,1.814,0,0,1,1.482-.693,1.722,1.722,0,0,1,1.342.6v-.482h.987Z" transform="translate(-138.09 -28.806)" fill="#1a2863"/>
  </g>
</svg>
