<?xml version="1.0" encoding="UTF-8"?> <svg xmlns="http://www.w3.org/2000/svg" width="155" height="37" viewBox="0 0 155 37" fill="none"><g clip-path="url(#clip0_7_1548)"><path d="M85.3262 6.75794C88.0052 6.68539 90.2303 8.82196 90.3029 11.5244V11.7022C90.2957 12.8122 89.9182 13.8859 89.2466 14.7601L90.3283 15.7395L89.3301 16.8568L88.2593 15.7975C87.4098 16.4324 86.3789 16.7588 85.3262 16.7443C82.6146 16.7625 80.4004 14.5606 80.3822 11.8291V11.6985C80.3495 8.9997 82.4912 6.79059 85.1701 6.75794H85.3262ZM85.3262 15.1482C85.9215 15.1482 86.506 14.9669 87.0069 14.6368L85.9361 13.6175L86.9343 12.5183L87.9797 13.563C88.3246 13.0008 88.5061 12.3587 88.5061 11.6985C88.5823 9.93921 87.2356 8.44833 85.4896 8.3649C83.7436 8.2851 82.2662 9.64539 82.1827 11.4047V11.6913C82.0847 13.4941 83.4532 15.0322 85.2464 15.1301H85.3299V15.1446L85.3262 15.1482Z" fill="#E5E5E5"></path><path d="M91.9836 6.92118H93.7296V13.1132C93.7296 14.2958 94.6843 15.2571 95.8568 15.2571C97.0293 15.2571 97.984 14.2958 97.984 13.1132V6.92118H99.7227V13.1132C99.7227 15.2788 98.1727 16.7479 95.8641 16.7479C93.5554 16.7479 91.9727 15.2788 91.9727 13.1132L91.9872 6.92118H91.9836Z" fill="#E5E5E5"></path><path d="M106.438 14.1072H103.077L102.267 16.5847H100.47L103.843 6.92118H105.672L109.044 16.5847H107.255L106.438 14.1072ZM104.754 8.59706C104.754 8.59706 104.54 9.54382 104.344 10.0952L103.494 12.7106H106.01L105.153 10.0952C104.979 9.54745 104.776 8.59706 104.776 8.59706H104.75H104.754Z" fill="#E5E5E5"></path><path d="M110.17 6.92118H111.916L115.549 12.5038C115.84 12.9863 116.108 13.4832 116.341 14.002C116.341 14.002 116.243 13.0733 116.243 12.5038V6.92118H117.974V16.5847H116.275L112.642 11.0166C112.351 10.5341 112.083 10.0372 111.843 9.51843C111.843 9.51843 111.941 10.4471 111.941 11.0166V16.5847H110.195L110.17 6.92118Z" fill="#E5E5E5"></path><path d="M122.294 8.43382H119.147V6.9248H127.183V8.43382H124.036V16.5847H122.29V8.43382H122.294Z" fill="#E5E5E5"></path><path d="M128.258 6.92118H130.004V13.1132C130.004 14.2958 130.959 15.2571 132.131 15.2571C133.304 15.2571 134.258 14.2958 134.258 13.1132V6.92118H136.004V13.1132C136.004 15.2788 134.447 16.7479 132.113 16.7479C129.779 16.7479 128.222 15.2788 128.222 13.1132L128.262 6.92118H128.258Z" fill="#E5E5E5"></path><path d="M138.585 6.92118H140.455L142.331 11.6985C142.553 12.268 142.818 13.1096 142.818 13.1096H142.85C142.85 13.1096 143.105 12.268 143.319 11.6985L145.199 6.92118H147.061L147.834 16.5847H146.11L145.7 11.1798C145.66 10.5269 145.7 9.68167 145.7 9.68167C145.7 9.68167 145.413 10.6248 145.188 11.1798L143.591 14.927H142.066L140.524 11.1798C140.295 10.6248 139.997 9.67078 139.997 9.67078V11.1798L139.587 16.5847H137.848L138.589 6.92118H138.585Z" fill="#E5E5E5"></path><path d="M88.0995 21.8155H89.9617L91.8421 26.5928C92.0562 27.1623 92.3285 28.0039 92.3285 28.0039C92.3285 28.0039 92.5862 27.1623 92.8004 26.5928L94.6734 21.8155H96.5429L97.3161 31.4826H95.5846L95.1816 26.0777C95.1381 25.4248 95.1816 24.5796 95.1816 24.5796C95.1816 24.5796 94.9021 25.5155 94.6698 26.0777L93.1198 29.8249H91.588L90.0488 26.0777C89.8165 25.5155 89.5225 24.5687 89.5225 24.5687V26.0777L89.0869 31.4826H87.3409L88.0923 21.8155H88.0995Z" fill="#E5E5E5"></path><path d="M104.293 29.0051H100.932L100.122 31.4826H98.3252L101.697 21.8155H103.527L106.899 31.4826H105.102L104.293 29.0051ZM102.605 23.4877C102.605 23.4877 102.391 24.4418 102.195 24.9859L101.345 27.6013H103.861L103.004 24.9859C102.83 24.4418 102.627 23.4877 102.627 23.4877H102.601H102.605Z" fill="#E5E5E5"></path><path d="M112.05 21.6523C113.353 21.6015 114.627 22.0694 115.593 22.9581L114.751 24.264C114.025 23.6365 113.11 23.2774 112.155 23.2447C110.435 23.1722 108.983 24.5252 108.91 26.2591V26.611C108.805 28.4138 110.17 29.9591 111.959 30.0643H112.155C113.208 30.0244 114.199 29.5855 114.94 28.8346L115.854 30.1042C114.863 31.1235 113.498 31.693 112.086 31.6749C109.418 31.7583 107.193 29.6472 107.117 26.9628V26.611C107.059 23.9303 109.168 21.7067 111.832 21.6486H112.047L112.054 21.6559L112.05 21.6523Z" fill="#E5E5E5"></path><path d="M117.197 21.8155H118.936V25.9145H123.328V21.8155H125.074V31.4826H123.328V27.4235H118.936V31.4826H117.197V21.8155Z" fill="#E5E5E5"></path><path d="M127.369 21.8155H129.107V31.4826H127.369V21.8155Z" fill="#E5E5E5"></path><path d="M131.372 21.8155H133.119L136.752 27.3981C137.043 27.8806 137.311 28.3775 137.551 28.8963C137.551 28.8963 137.453 27.9676 137.453 27.3981V21.8155H139.184V31.4826H137.453L133.859 25.9145C133.569 25.4321 133.3 24.9351 133.06 24.4164C133.06 24.4164 133.158 25.3377 133.158 25.9145V31.4826H131.412L131.372 21.8155Z" fill="#E5E5E5"></path><path d="M141.5 21.8155H147.243V23.3463H143.246V25.8746H146.491V27.3909H143.246V30.0063H147.482V31.5225H141.526L141.5 21.8155Z" fill="#E5E5E5"></path><path d="M149.428 29.0051C150.081 29.6145 150.927 29.9736 151.817 30.0244C152.55 30.0244 153.21 29.6399 153.21 28.8527C153.21 27.1188 148.669 27.4199 148.669 24.4526C148.669 22.8457 150.052 21.6486 151.915 21.6486C152.967 21.6087 153.998 21.9824 154.782 22.6897L154.031 24.1225C153.435 23.6111 152.688 23.3136 151.907 23.281C151.098 23.281 150.463 23.7598 150.463 24.4381C150.463 26.1503 155.004 25.744 155.004 28.8165C155.004 30.3581 153.835 31.6531 151.838 31.6531C150.604 31.6785 149.417 31.207 148.528 30.3473L149.428 29.0087V29.0051Z" fill="#E5E5E5"></path><path d="M78.4184 31.7692L78.4075 31.7438L66.984 3.39167C66.5883 2.41951 65.6627 1.78833 64.6245 1.78108C63.579 1.78108 62.6534 2.405 62.2577 3.36627L57.3282 15.2643L56.9943 16.0732L56.6603 15.2643L51.7308 3.36627C51.3315 2.40137 50.4059 1.78108 49.375 1.78108C48.344 1.78108 47.4039 2.41226 47.0046 3.39167L37.0802 28.0112L36.8915 28.4755L36.5067 28.1526L34.7353 26.6618L34.5211 26.484L34.6409 26.2337C35.7843 23.7961 36.3651 21.1952 36.3651 18.5036C36.3579 8.49912 28.2848 0.362745 18.3604 0.362745C8.43608 0.362745 0.363007 8.49912 0.363007 18.5C0.363007 28.5009 8.43608 36.6373 18.3604 36.6373C23.3153 36.6373 27.9399 34.6385 31.3775 31.0038L31.6135 30.7535L31.8748 30.9748L36.2998 34.6929C36.7572 35.0775 37.3379 35.2878 37.9333 35.2878C38.1474 35.2878 38.358 35.2625 38.5504 35.2153C39.3417 35.0158 39.9951 34.4426 40.3 33.6845L49.0591 11.9488L49.3895 11.1254L49.7307 11.9452L54.6239 23.7562C54.6239 23.7562 54.6312 23.7634 54.6348 23.7707C54.6566 23.807 54.6783 23.8432 54.6929 23.8831C54.7364 23.9774 54.7945 24.0972 54.8635 24.1987C54.8853 24.2277 54.9179 24.264 54.947 24.3039C54.9687 24.3293 54.9869 24.3547 55.0087 24.3765C55.0268 24.3982 55.0486 24.4273 55.074 24.4563C55.1103 24.5034 55.1466 24.5506 55.1865 24.5869C55.2337 24.634 55.2954 24.6812 55.3644 24.732H55.3717L55.3826 24.7428C55.408 24.7646 55.437 24.79 55.4661 24.8118C55.5023 24.8444 55.5423 24.8771 55.5822 24.9061C55.6439 24.9424 55.7056 24.975 55.771 25.0076L55.869 25.0584C55.898 25.0766 55.9234 25.0911 55.9452 25.1056C55.9561 25.1128 55.967 25.1201 55.9815 25.1274L56.0251 25.1419C56.1957 25.2108 56.3481 25.2579 56.4933 25.2833C56.5478 25.2942 56.5913 25.2978 56.6385 25.3015C56.6785 25.3015 56.722 25.3087 56.7656 25.3124C56.8055 25.3124 56.8454 25.3196 56.8854 25.3269C56.9253 25.3305 56.9616 25.3377 57.0015 25.3377C57.0596 25.3377 57.1213 25.3305 57.1976 25.3196L57.2992 25.3087L57.3754 25.3015C57.419 25.3015 57.4589 25.2978 57.4843 25.2906C57.684 25.2471 57.8328 25.2035 57.9707 25.1419L58.0288 25.1165C58.0288 25.1165 58.0361 25.1128 58.0397 25.1092L58.0869 25.0802L58.0978 25.0729L58.1123 25.0657C58.2321 25.0076 58.3301 24.9569 58.4209 24.8988C58.4644 24.8698 58.5043 24.8335 58.5479 24.7973L58.6024 24.7501C58.6278 24.7283 58.6568 24.7029 58.6858 24.6812C58.7294 24.6485 58.7693 24.6159 58.8093 24.5796C58.8456 24.5433 58.8746 24.5034 58.9036 24.4635C58.9254 24.4345 58.9508 24.4019 58.9762 24.3728C58.9944 24.3511 59.0162 24.3257 59.0379 24.3003C59.067 24.2676 59.096 24.235 59.1214 24.1951C59.1759 24.1117 59.2231 24.0174 59.2739 23.9122L59.2957 23.8686C59.3102 23.8324 59.332 23.7997 59.3501 23.7671C59.3538 23.7598 59.361 23.7526 59.3646 23.7453L64.2542 11.9416L64.5954 11.1218L64.9258 11.9452L73.6849 33.6809C74.0769 34.6603 75.0098 35.2915 76.0553 35.2915C76.3747 35.2915 76.7087 35.2262 77.0172 35.1028C78.3204 34.5732 78.952 33.0751 78.4293 31.7547L78.4184 31.7692ZM30.5971 22.541L30.4301 23.0525L30.0163 22.7042L26.8038 20.0054C26.3464 19.6209 25.7656 19.4105 25.1666 19.4105C24.4043 19.4105 23.6892 19.7478 23.2028 20.3319C22.299 21.4237 22.4442 23.0561 23.5259 23.9666L27.3737 27.195L27.6786 27.4489L27.3991 27.7282C25.1775 29.941 22.2917 31.2396 19.1953 31.4427L19.2207 31.4681L18.3568 31.4754C11.2529 31.4754 5.47401 25.6533 5.47401 18.4964C5.47401 11.3394 11.2566 5.52098 18.3604 5.52098C25.4643 5.52098 31.2432 11.343 31.2432 18.5C31.2432 19.8639 31.0254 21.2206 30.5971 22.541Z" fill="#E5E5E5"></path></g><defs><clipPath id="clip0_7_1548"><rect width="155" height="37" fill="white"></rect></clipPath></defs></svg> 