<svg xmlns="http://www.w3.org/2000/svg" width="160" height="51" viewBox="0 0 160 51" fill="none"><g clip-path="url(#clip0_141_11200)"><path d="M19.0012 34.9853C16.0697 37.005 10.5194 39.4786 7.71799 35.8665C6.0093 33.6647 6.26672 30.0988 6.83672 27.5646C7.46101 24.7916 8.50689 22.0819 9.97436 19.4355C10.0807 19.2429 10.0584 18.983 9.99538 18.7732C9.36934 16.7003 8.95256 14.6225 8.74505 12.5398C8.7398 12.488 8.71221 12.4682 8.66231 12.4805C6.05133 13.1216 2.77709 14.4264 1.29299 16.8234C0.554873 18.016 0.415218 19.2895 0.874022 20.6439C0.875773 20.6492 0.874022 20.6527 0.868768 20.6545L0.831994 20.6676C0.817109 20.6738 0.806164 20.6694 0.79916 20.6545C-0.271237 18.2178 0.721671 15.954 2.68516 14.3855C4.3295 13.0741 6.44796 12.2166 8.59401 11.6401C8.64042 11.6278 8.66274 11.5975 8.66099 11.5491C8.58482 9.64545 8.63998 7.76818 9.12724 5.95819C10.1845 2.02424 13.1343 0.211614 17.0153 1.89232C19.0274 2.76301 20.8464 4.2577 22.3621 5.87772C24.0082 7.63582 25.4292 9.51837 26.6253 11.5254C26.7093 11.6678 26.8293 11.7567 26.9851 11.7918C29.1137 12.2782 31.1774 12.9721 33.1764 13.8736C33.182 13.8763 33.1882 13.8776 33.1945 13.8776C33.2008 13.8775 33.2071 13.876 33.2128 13.8733C33.2186 13.8705 33.2237 13.8665 33.2278 13.8616C33.2319 13.8566 33.235 13.8508 33.2368 13.8446C33.9302 11.5056 34.3019 8.81433 33.6873 6.49776C33.1917 4.62885 32.0241 3.4433 30.1845 2.94111C30.1722 2.93759 30.1674 2.92924 30.1701 2.91604C30.1727 2.90285 30.1801 2.89713 30.1924 2.89889C33.4797 3.32237 34.7169 6.23523 34.713 9.22725C34.7104 10.8587 34.474 12.5025 34.0038 14.1585C33.9954 14.1882 33.9976 14.2199 34.0101 14.2481C34.0226 14.2763 34.0445 14.2993 34.0721 14.3129C36.8564 15.6678 40.4669 18.2112 40.7611 21.5792C41.0448 24.8153 37.8244 26.9828 35.2121 28.0408C32.0849 29.306 28.5638 29.8416 25.1123 29.9142C24.9245 29.9181 24.7708 30.0171 24.6447 30.1516C23.1694 31.7373 21.5609 33.1634 19.8194 34.4299C19.81 34.4367 19.8023 34.4454 19.7967 34.4556C19.791 34.4657 19.7877 34.477 19.7868 34.4887C19.7859 34.5003 19.7876 34.512 19.7916 34.5231C19.7956 34.5341 19.802 34.5442 19.8102 34.5526C21.5307 36.2861 23.4246 37.8559 25.7007 38.5301C27.3831 39.0301 29.0563 38.8282 30.3539 37.6224C30.5203 37.4676 30.6696 37.3221 30.8018 37.1858C30.8832 37.1013 30.8911 37.1079 30.8254 37.2056C29.9822 38.4571 28.798 39.1457 27.2728 39.2715C24.3006 39.5168 21.0947 37.0736 19.101 34.9958C19.088 34.9826 19.0709 34.9742 19.0527 34.9723C19.0344 34.9704 19.0162 34.975 19.0012 34.9853ZM25.2318 11.4106C25.624 11.4853 26.0264 11.5627 26.4388 11.6428C26.5001 11.6542 26.5141 11.6335 26.4808 11.5808C25.4835 10.0179 24.2997 8.50432 22.9294 7.03997C21.5924 5.61168 20.0948 4.4613 18.4364 3.58885C17.5766 3.13679 16.6502 2.87075 15.6573 2.79072C13.6452 2.62977 11.9681 3.79861 11.1078 5.63234C10.5825 6.75369 10.2642 7.95507 10.153 9.23649C10.0978 9.87148 10.0593 10.5337 10.0374 11.2233C10.037 11.2326 10.0388 11.2419 10.0425 11.2505C10.0462 11.2591 10.0518 11.2667 10.0589 11.2728C10.066 11.2789 10.0743 11.2833 10.0834 11.2857C10.0924 11.2881 10.1018 11.2884 10.111 11.2866C11.9576 10.9295 13.8379 10.7202 15.7519 10.6586C18.9145 10.5566 22.0744 10.8073 25.2318 11.4106ZM11.8998 16.2759C11.6108 16.779 11.3158 17.2873 11.0146 17.801C10.9673 17.8819 10.9554 17.9676 10.9791 18.0582C12.1051 22.3809 13.8856 26.4103 16.3206 30.1463C17.0517 31.2694 17.8533 32.3402 18.7253 33.3587C18.7535 33.3917 18.7929 33.4131 18.8359 33.419C18.879 33.4248 18.9228 33.4146 18.9591 33.3903C20.4415 32.3886 21.8332 31.2677 23.1343 30.0276C23.1397 30.0226 23.1434 30.0161 23.1452 30.009C23.147 30.0019 23.1467 29.9944 23.1443 29.9874C23.142 29.9804 23.1377 29.9743 23.1319 29.9697C23.1262 29.9652 23.1193 29.9624 23.112 29.9616C22.8073 29.9317 22.5122 29.9181 22.2268 29.9207C22.2075 29.9216 22.1979 29.9124 22.1979 29.893V29.8917C22.1979 29.8715 22.208 29.8614 22.2281 29.8614C22.5302 29.8596 22.8489 29.8495 23.1842 29.831C23.2882 29.8251 23.3864 29.781 23.46 29.707C26.7811 26.4107 29.4608 22.6487 31.4992 18.421C32.0175 17.3463 32.4474 16.2904 32.7889 15.2535C32.7939 15.238 32.7934 15.2213 32.7873 15.2065C32.7813 15.1917 32.7702 15.1798 32.7561 15.173C31.1687 14.3736 29.5248 13.7201 27.8244 13.2127C27.8121 13.2083 27.7867 13.1968 27.7482 13.1784C27.7158 13.1625 27.686 13.1612 27.6589 13.1744C27.6491 13.1793 27.6405 13.1861 27.6334 13.1945C27.6264 13.2029 27.6212 13.2126 27.6181 13.223C27.615 13.2334 27.6141 13.2443 27.6155 13.255C27.6169 13.2657 27.6205 13.276 27.6261 13.2852C27.9036 13.7505 28.151 14.2223 28.3681 14.7008C28.3734 14.7122 28.3703 14.7205 28.3589 14.7258V14.7271C28.3475 14.7324 28.3388 14.7298 28.3326 14.7192C28.0411 14.2329 27.7771 13.7549 27.5407 13.2852C27.4553 13.1164 27.3174 13.0623 27.1467 13.0148C21.666 11.5214 15.7703 11.1309 10.1543 12.1441C10.131 12.1485 10.1101 12.1612 10.0954 12.1799C10.0807 12.1985 10.0731 12.2219 10.0742 12.2457C10.1582 13.9184 10.4196 15.6796 10.8583 17.5292C10.9012 17.7104 10.9664 17.7187 11.054 17.5543C11.2947 17.104 11.571 16.6743 11.8827 16.2654C11.9484 16.1792 11.954 16.1827 11.8998 16.2759ZM30.7571 28.9643C33.5743 28.2677 37.4855 26.7295 38.6019 23.7863C39.9625 20.1993 36.3061 17.2179 33.6387 15.6598C33.6311 15.6555 33.6228 15.6528 33.6141 15.6521C33.6054 15.6513 33.5967 15.6525 33.5886 15.6555C33.5804 15.6585 33.573 15.6633 33.5669 15.6696C33.5608 15.6758 33.5562 15.6833 33.5533 15.6915C31.7474 20.8576 28.8225 25.5343 25.1438 29.62C25.037 29.7378 25.0628 29.791 25.2213 29.7796C27.0652 29.6503 28.8921 29.4247 30.7571 28.9643ZM7.34631 27.8166C6.93916 30.9115 7.37652 34.8217 10.9042 35.6977C12.718 36.1489 14.8562 35.5486 16.557 34.7214C17.0578 34.4787 17.5446 34.2307 18.0174 33.9774C18.0263 33.9727 18.0339 33.966 18.0399 33.9579C18.0458 33.9499 18.0499 33.9405 18.0518 33.9307C18.0537 33.9208 18.0534 33.9106 18.0508 33.9009C18.0483 33.8912 18.0436 33.8822 18.0371 33.8745C14.4805 29.7466 11.8984 24.8153 10.2305 19.5951C10.2173 19.5547 10.1928 19.523 10.1569 19.5001C10.1522 19.4971 10.1468 19.4951 10.1412 19.4943C10.1357 19.4935 10.13 19.4938 10.1246 19.4953C10.1191 19.4968 10.1141 19.4994 10.1097 19.503C10.1053 19.5065 10.1017 19.5109 10.0991 19.516C8.7792 22.0845 7.72325 24.9578 7.34631 27.8166Z" fill="white"></path><path d="M65.5646 14.8736C65.5468 14.8969 65.5381 14.926 65.54 14.9554C65.5419 14.9847 65.5544 15.0124 65.5752 15.0332L66.6941 16.1532C66.7335 16.1937 66.7331 16.2337 66.6928 16.2733L64.2513 18.6558C64.2412 18.6656 64.2275 18.671 64.2133 18.6707C64.1991 18.6705 64.1854 18.6647 64.1751 18.6545L62.7987 17.2548C62.7593 17.2143 62.7133 17.2055 62.6608 17.2284C61.1942 17.8757 59.6019 18.1101 57.8841 17.9315C54.1764 17.5463 51.3408 15.0147 50.8234 11.2786C50.2416 7.09008 52.5478 3.32367 56.6994 2.32105C58.8034 1.81315 61.4407 2.04665 63.3004 3.17987C65.2433 4.36278 66.4398 6.02634 66.8898 8.17053C67.3692 10.4581 66.9975 12.9831 65.5646 14.8736ZM58.4291 12.7892C58.4243 12.7841 58.4206 12.7782 58.4181 12.7717C58.4156 12.7653 58.4144 12.7584 58.4145 12.7516C58.4146 12.7447 58.4161 12.738 58.4188 12.7317C58.4215 12.7255 58.4255 12.7199 58.4304 12.7153L60.8996 10.3684C60.9217 10.3477 60.9509 10.3365 60.9811 10.3373C61.0113 10.338 61.04 10.3506 61.0611 10.3723L62.4874 11.8525C62.5329 11.9 62.5671 11.8925 62.5899 11.8301C63.303 9.86707 62.8486 7.58083 61.0716 6.42387C60.2521 5.88958 59.1804 5.71808 58.2137 5.87902C55.7485 6.28799 54.4772 8.72989 55.0314 11.1164C55.3361 12.4251 56.0882 13.3534 57.2878 13.9013C58.0403 14.2456 58.8205 14.2693 59.6453 14.1928C59.7477 14.1832 59.7631 14.1418 59.6913 14.0688L58.4291 12.7892Z" fill="white"></path><path d="M72.5161 11.9475C72.524 13.9963 74.7764 14.6414 76.3249 13.9052C76.8231 13.6678 77.1659 13.2738 77.3533 12.7232C77.4478 12.4462 77.4955 11.9598 77.4964 11.2641C77.5008 8.34688 77.5012 5.40806 77.4977 2.4477C77.4977 2.38086 77.5315 2.34744 77.5989 2.34744L81.514 2.34876C81.5332 2.34876 81.5516 2.35655 81.5651 2.3704C81.5787 2.38425 81.5863 2.40305 81.5863 2.42264C81.5766 5.52284 81.5692 8.68328 81.5639 11.904C81.5631 12.2734 81.5337 12.6397 81.4759 13.0029C80.8547 16.9052 77.5792 18.2455 74.0291 17.9447C71.3577 17.7178 69.238 16.235 68.6207 13.5095C68.4841 12.907 68.4193 12.0508 68.4263 10.9409C68.4447 7.96034 68.4469 5.12663 68.4329 2.43979C68.4327 2.4279 68.4349 2.41609 68.4393 2.40505C68.4437 2.39402 68.4502 2.38397 68.4585 2.3755C68.4669 2.36703 68.4768 2.36031 68.4877 2.35571C68.4986 2.35112 68.5103 2.34876 68.5222 2.34876L72.4557 2.35272C72.4717 2.35272 72.4871 2.35911 72.4984 2.37049C72.5098 2.38187 72.5161 2.39731 72.5161 2.4134C72.5047 5.64992 72.5047 8.82796 72.5161 11.9475Z" fill="white"></path><path d="M92.3292 15.272H86.7027C86.6938 15.272 86.685 15.2748 86.6778 15.28C86.6705 15.2852 86.665 15.2925 86.662 15.301L85.7899 17.6888C85.7869 17.6973 85.7814 17.7046 85.7741 17.7098C85.7668 17.715 85.7581 17.7178 85.7492 17.7178L81.532 17.7191C81.5249 17.7192 81.5179 17.7175 81.5116 17.7142C81.5053 17.7109 81.4999 17.7062 81.4959 17.7003C81.4919 17.6944 81.4894 17.6877 81.4886 17.6806C81.4878 17.6736 81.4887 17.6664 81.4912 17.6598L87.316 2.37777C87.3192 2.36956 87.3248 2.36251 87.3321 2.35756C87.3394 2.35261 87.348 2.35 87.3568 2.35007L91.6777 2.35139C91.6865 2.35132 91.6951 2.35393 91.7024 2.35888C91.7097 2.36383 91.7153 2.37087 91.7185 2.37909L97.5433 17.6598C97.5458 17.6664 97.5467 17.6736 97.5459 17.6806C97.5451 17.6877 97.5426 17.6944 97.5386 17.7003C97.5346 17.7062 97.5292 17.7109 97.5229 17.7142C97.5166 17.7175 97.5096 17.7192 97.5025 17.7191L93.2866 17.7178C93.2777 17.7178 93.269 17.715 93.2617 17.7098C93.2544 17.7046 93.2489 17.6973 93.2459 17.6888L92.3699 15.301C92.3669 15.2925 92.3614 15.2852 92.3541 15.28C92.3468 15.2748 92.3381 15.272 92.3292 15.272ZM88.0082 11.6111C88.0056 11.6179 88.0048 11.6252 88.0057 11.6324C88.0065 11.6397 88.0092 11.6466 88.0133 11.6525C88.0174 11.6585 88.023 11.6634 88.0294 11.6667C88.0358 11.6701 88.043 11.6718 88.0502 11.6718H90.9843C90.9915 11.6718 90.9987 11.6701 91.0051 11.6667C91.0115 11.6634 91.0171 11.6585 91.0212 11.6525C91.0253 11.6466 91.028 11.6397 91.0288 11.6324C91.0297 11.6252 91.0289 11.6179 91.0263 11.6111L89.5593 7.58083C89.5562 7.57213 89.5505 7.56461 89.5429 7.5593C89.5354 7.55398 89.5264 7.55113 89.5173 7.55113C89.5081 7.55113 89.4991 7.55398 89.4916 7.5593C89.484 7.56461 89.4783 7.57213 89.4752 7.58083L88.0082 11.6111Z" fill="white"></path><path d="M102.824 9.23386C102.838 9.3904 102.845 9.56147 102.844 9.74704C102.83 12.4427 102.829 15.0855 102.841 17.6756C102.841 17.6856 102.839 17.6955 102.836 17.7047C102.832 17.7139 102.826 17.7223 102.819 17.7293C102.812 17.7363 102.803 17.7418 102.794 17.7455C102.785 17.7492 102.775 17.751 102.765 17.7508L98.8225 17.7165C98.7813 17.7156 98.7607 17.6945 98.7607 17.6532V2.41738C98.7607 2.39883 98.7679 2.38105 98.7807 2.36794C98.7936 2.35482 98.8109 2.34746 98.829 2.34746L102.862 2.33427C102.924 2.33391 102.986 2.34859 103.041 2.37708C103.096 2.40557 103.143 2.447 103.179 2.49785L108.858 10.5465C108.95 10.6758 108.996 10.6608 108.996 10.5016L108.988 2.42265C108.988 2.36901 109.015 2.34218 109.068 2.34218L112.941 2.35142C112.966 2.35138 112.989 2.3608 113.007 2.37773C113.025 2.39467 113.036 2.41783 113.037 2.44244C113.048 2.63945 113.053 2.82766 113.054 3.00707C113.074 7.45113 113.077 12.3358 113.062 17.6611C113.062 17.6981 113.044 17.7165 113.008 17.7165L109.067 17.7192C109.046 17.7191 109.026 17.7142 109.007 17.7048C108.989 17.6954 108.973 17.6818 108.962 17.6651L102.971 9.17977C102.856 9.0153 102.807 9.03333 102.824 9.23386Z" fill="white"></path><path d="M119.215 6.0809L115.012 6.07826C114.995 6.07826 114.978 6.07131 114.966 6.05894C114.954 6.04657 114.947 6.02979 114.947 6.0123L114.934 2.40816C114.934 2.39066 114.941 2.37388 114.953 2.36151C114.965 2.34914 114.982 2.34219 114.999 2.34219L127.589 2.34615C127.607 2.34615 127.623 2.3531 127.636 2.36547C127.648 2.37784 127.655 2.39462 127.655 2.41211V6.0123C127.655 6.02979 127.648 6.04657 127.636 6.05894C127.623 6.07131 127.607 6.07826 127.589 6.07826L123.419 6.08222C123.402 6.08222 123.385 6.08917 123.373 6.10154C123.361 6.11391 123.354 6.13069 123.354 6.14818V17.6519C123.354 17.6606 123.352 17.6691 123.349 17.6771C123.345 17.6851 123.34 17.6924 123.334 17.6985C123.328 17.7047 123.321 17.7095 123.313 17.7128C123.305 17.7162 123.297 17.7179 123.288 17.7179L119.347 17.7192C119.329 17.7192 119.312 17.7122 119.3 17.6999C119.288 17.6875 119.281 17.6707 119.281 17.6532V6.14686C119.281 6.12937 119.274 6.11259 119.262 6.10022C119.249 6.08785 119.233 6.0809 119.215 6.0809Z" fill="white"></path><path d="M129.139 2.33822L133.046 2.35405C133.104 2.35405 133.133 2.38263 133.133 2.4398C133.152 5.46172 133.15 8.32402 133.126 11.0267C133.12 11.8138 133.178 12.3815 133.3 12.7298C133.741 13.9936 135.138 14.3841 136.355 14.1163C137.178 13.9334 137.725 13.4791 137.994 12.7536C138.105 12.4528 138.157 11.856 138.151 10.9634C138.133 8.12262 138.131 5.27615 138.145 2.42397C138.145 2.37384 138.17 2.34877 138.22 2.34877L142.031 2.35141C142.152 2.35141 142.212 2.4121 142.211 2.53347C142.206 6.00745 142.205 9.13667 142.207 11.9211C142.21 15.1638 140.224 17.4316 137.043 17.8854C132.81 18.4883 129.082 16.5754 129.075 11.7694C129.068 8.58127 129.066 5.46128 129.068 2.40946C129.068 2.36109 129.092 2.33734 129.139 2.33822Z" fill="white"></path><path d="M148.118 8.7734C148.1 8.81122 148.091 8.84948 148.091 8.88818C148.097 11.6674 148.095 14.5859 148.085 17.6439C148.085 17.6941 148.06 17.7191 148.01 17.7191H144.093C144.045 17.7191 144.021 17.6949 144.021 17.6466L144.015 2.511C144.015 2.40282 144.069 2.3483 144.178 2.34742L148.273 2.32499C148.436 2.32411 148.564 2.39183 148.656 2.52815L152.15 7.73648C152.186 7.79013 152.222 7.79013 152.259 7.73648L155.801 2.45559C155.855 2.37556 155.93 2.33554 156.027 2.33554L160.321 2.35006C160.365 2.35006 160.387 2.37248 160.387 2.41734L160.378 17.6439C160.378 17.6932 160.353 17.7178 160.304 17.7178L156.419 17.7191C156.363 17.7191 156.335 17.691 156.335 17.6347C156.329 14.7025 156.326 11.7562 156.326 8.79583C156.326 8.77208 156.314 8.75757 156.289 8.75229C156.283 8.75084 156.277 8.75121 156.271 8.75334C156.266 8.75547 156.261 8.75925 156.258 8.76417L152.277 14.5939C152.271 14.6023 152.264 14.6092 152.255 14.614C152.246 14.6188 152.236 14.6213 152.226 14.6213C152.216 14.6213 152.206 14.6188 152.197 14.614C152.188 14.6092 152.18 14.6023 152.175 14.5939L148.153 8.77076C148.151 8.76773 148.148 8.76529 148.145 8.76369C148.141 8.76209 148.138 8.76139 148.134 8.76166C148.13 8.76193 148.127 8.76316 148.124 8.76522C148.121 8.76729 148.119 8.77011 148.118 8.7734Z" fill="white"></path><path d="M67.5334 37.4641C65.4469 36.0455 64.3152 34.0561 64.1384 31.4959C64.007 29.5883 64.412 27.8988 65.3532 26.4274C66.7559 24.2335 69.2119 23.0066 71.8032 22.9288C73.5736 22.876 75.2692 23.1465 76.7533 24.066C79.7859 25.9432 80.9022 29.1569 80.2981 32.5908C79.8397 35.2003 77.9524 37.3506 75.4938 38.2543C73.0391 39.1567 69.8003 39.0036 67.5334 37.4641ZM71.6916 26.7071C70.9298 26.7897 70.2451 27.0971 69.6375 27.6292C68.5106 28.6147 68.1245 30.1714 68.3504 31.6647C68.596 33.2848 69.774 34.6053 71.3672 34.9378C73.6826 35.4193 75.7052 34.199 76.1912 31.8349C76.4394 30.6265 76.2096 29.2004 75.4596 28.2084C74.57 27.0316 73.314 26.5312 71.6916 26.7071Z" fill="white"></path><path d="M56.2367 29.1318L61.1421 29.1265C61.1493 29.1265 61.1565 29.128 61.1632 29.1307C61.1699 29.1335 61.176 29.1376 61.1811 29.1428C61.1862 29.1479 61.1903 29.154 61.1931 29.1607C61.1958 29.1675 61.1973 29.1747 61.1973 29.1819L61.1986 32.823C61.1986 32.8377 61.1928 32.8518 61.1824 32.8622C61.1721 32.8726 61.158 32.8784 61.1434 32.8784L56.2288 32.8771C56.2215 32.8771 56.2144 32.8785 56.2077 32.8813C56.201 32.8841 56.1949 32.8882 56.1898 32.8933C56.1846 32.8985 56.1806 32.9046 56.1778 32.9113C56.175 32.918 56.1736 32.9252 56.1736 32.9325L56.1802 38.4773C56.1802 38.492 56.1744 38.506 56.164 38.5164C56.1537 38.5268 56.1397 38.5327 56.125 38.5327L52.1626 38.534C52.1553 38.534 52.1482 38.5325 52.1415 38.5298C52.1348 38.527 52.1287 38.5229 52.1236 38.5178C52.1185 38.5126 52.1144 38.5065 52.1116 38.4998C52.1089 38.4931 52.1074 38.4858 52.1074 38.4786V23.1979C52.1074 23.1906 52.1089 23.1834 52.1116 23.1767C52.1144 23.17 52.1185 23.1639 52.1236 23.1587C52.1287 23.1536 52.1348 23.1495 52.1415 23.1467C52.1482 23.1439 52.1553 23.1425 52.1626 23.1425L62.5553 23.1438C62.5699 23.1438 62.5839 23.1496 62.5943 23.16C62.6046 23.1704 62.6104 23.1845 62.6104 23.1992V26.8522C62.6104 26.8669 62.6046 26.881 62.5943 26.8913C62.5839 26.9017 62.5699 26.9076 62.5553 26.9076H56.2275C56.2128 26.9076 56.1988 26.9134 56.1885 26.9238C56.1781 26.9342 56.1723 26.9483 56.1723 26.963L56.1815 29.0764C56.1815 29.0911 56.1873 29.1052 56.1977 29.1156C56.208 29.126 56.222 29.1318 56.2367 29.1318Z" fill="white"></path><path d="M87.1994 38.6276C84.2194 38.0393 82.512 35.7504 82.5094 32.7003C82.5059 29.6168 82.505 26.4621 82.5067 23.2362C82.5067 23.1746 82.5374 23.1438 82.5987 23.1438L86.477 23.1425C86.5287 23.1425 86.5545 23.1689 86.5545 23.2216C86.5528 26.2875 86.5524 29.3811 86.5532 32.5024C86.5532 34.2821 87.7944 35.1475 89.4505 34.9786C90.9241 34.8283 91.5808 33.8744 91.5769 32.4536C91.5637 28.8152 91.5624 25.7339 91.5729 23.2098C91.5729 23.1658 91.5953 23.1438 91.6399 23.1438L95.5721 23.1425C95.6229 23.1425 95.6483 23.1684 95.6483 23.2203C95.6343 25.806 95.6343 28.5812 95.6483 31.546C95.6527 32.4958 95.6339 33.166 95.5918 33.5565C95.1243 37.9469 90.9688 39.3717 87.1994 38.6276Z" fill="white"></path><path d="M102.907 38.563L98.9516 38.5248C98.9401 38.5248 98.9291 38.5202 98.9209 38.512C98.9128 38.5039 98.9082 38.4928 98.9082 38.4812L98.9043 23.1795C98.9043 23.1679 98.9089 23.1568 98.917 23.1487C98.9251 23.1405 98.9361 23.1359 98.9476 23.1359L103.141 23.132C103.148 23.132 103.155 23.1336 103.161 23.1368C103.167 23.1401 103.173 23.1447 103.177 23.1504L109.028 31.4471C109.033 31.4547 109.041 31.4603 109.049 31.4633C109.058 31.4663 109.068 31.4664 109.076 31.4636C109.085 31.4608 109.093 31.4552 109.098 31.4478C109.104 31.4403 109.107 31.4313 109.107 31.422V23.186C109.107 23.1745 109.111 23.1634 109.119 23.1553C109.127 23.1471 109.138 23.1425 109.15 23.1425L113.127 23.1386C113.138 23.1386 113.149 23.1431 113.157 23.1513C113.166 23.1595 113.17 23.1705 113.17 23.1821L113.174 38.4905C113.174 38.502 113.169 38.5131 113.161 38.5213C113.153 38.5294 113.142 38.534 113.131 38.534L109.132 38.53C109.125 38.5301 109.118 38.5284 109.112 38.5252C109.105 38.5219 109.1 38.5173 109.096 38.5116L103.022 29.9089C103.016 29.9013 103.009 29.8956 103 29.8926C102.991 29.8897 102.982 29.8896 102.973 29.8924C102.964 29.8952 102.957 29.9007 102.951 29.9082C102.946 29.9157 102.943 29.9247 102.943 29.9339L102.951 38.5195C102.951 38.531 102.946 38.5421 102.938 38.5503C102.93 38.5584 102.919 38.563 102.907 38.563Z" fill="white"></path><path d="M116.234 23.2335C116.234 23.2129 116.243 23.1931 116.257 23.1785C116.272 23.1639 116.291 23.1557 116.312 23.1557L121.791 23.1359C123.953 23.1286 126.029 23.9116 127.563 25.3126C129.096 26.7137 129.962 28.618 129.968 30.6067L129.97 30.9999C129.976 32.9884 129.124 34.8985 127.6 36.3099C126.076 37.7213 124.006 38.5185 121.844 38.5261L116.364 38.5459C116.344 38.5459 116.324 38.5377 116.31 38.5231C116.295 38.5085 116.287 38.4887 116.287 38.468L116.234 23.2335ZM120.336 27.058L120.31 34.6198C120.31 34.6317 120.314 34.6431 120.323 34.6516C120.331 34.66 120.343 34.6647 120.354 34.6647L121.55 34.6687C122.104 34.6706 122.653 34.5766 123.166 34.3919C123.679 34.2072 124.145 33.9354 124.538 33.5922C124.932 33.2489 125.244 32.8409 125.458 32.3913C125.671 31.9418 125.782 31.4595 125.784 30.9722V30.7426C125.787 29.7585 125.346 28.8131 124.557 28.1145C123.767 27.4158 122.695 27.0211 121.576 27.0171L120.381 27.0131C120.369 27.0131 120.357 27.0179 120.349 27.0263C120.341 27.0347 120.336 27.0461 120.336 27.058Z" fill="white"></path><path d="M141.344 33.0473C142.43 34.7869 143.52 36.5908 144.613 38.4588C144.641 38.5081 144.627 38.5327 144.571 38.5327H140.167C140.057 38.5327 139.974 38.4843 139.919 38.3876L137.299 33.7386C137.285 33.7141 137.265 33.6937 137.24 33.6793C137.216 33.665 137.188 33.6572 137.16 33.6568L135.949 33.6542C135.876 33.6542 135.84 33.6907 135.84 33.7637L135.836 38.4654C135.836 38.5111 135.813 38.534 135.768 38.534L131.889 38.5314C131.863 38.5314 131.839 38.5211 131.82 38.5028C131.802 38.4845 131.792 38.4596 131.792 38.4337V23.1966C131.792 23.1805 131.798 23.1651 131.81 23.1537C131.821 23.1423 131.836 23.1359 131.852 23.1359C133.653 23.1517 135.589 23.1509 137.661 23.1333C138.69 23.1245 139.483 23.1909 140.039 23.3325C140.845 23.5392 141.582 23.9217 142.25 24.4802C143.579 25.5901 144.168 27.0655 144.019 28.9062C143.879 30.6569 142.914 32.0394 141.377 32.9194C141.322 32.951 141.311 32.9937 141.344 33.0473ZM135.84 26.9459L135.835 29.8403C135.835 29.8613 135.843 29.8814 135.858 29.8962C135.872 29.9111 135.892 29.9194 135.913 29.9194L137.937 29.9234C138.421 29.9242 138.885 29.768 139.228 29.4889C139.57 29.2098 139.763 28.8309 139.764 28.4353V28.3667C139.765 28.1707 139.718 27.9765 139.627 27.7952C139.535 27.614 139.401 27.4491 139.232 27.3102C139.063 27.1713 138.862 27.061 138.641 26.9855C138.419 26.9101 138.182 26.8711 137.943 26.8707L135.919 26.8667C135.898 26.8667 135.878 26.875 135.863 26.8899C135.848 26.9047 135.84 26.9249 135.84 26.9459Z" fill="white"></path><path d="M155.288 23.1438L159.789 23.1425C159.799 23.1425 159.808 23.1451 159.816 23.1499C159.824 23.1548 159.831 23.1617 159.836 23.17C159.84 23.1783 159.843 23.1877 159.843 23.1972C159.843 23.2068 159.84 23.2161 159.835 23.2243L154.528 31.9589C154.522 31.9677 154.52 31.9777 154.52 31.988L154.515 38.4799C154.515 38.4942 154.509 38.508 154.499 38.5181C154.489 38.5283 154.475 38.534 154.461 38.534L150.5 38.5314C150.485 38.5314 150.472 38.5257 150.462 38.5155C150.451 38.5054 150.446 38.4916 150.446 38.4773L150.443 32.0341C150.443 32.0239 150.441 32.0138 150.435 32.0051L145.104 23.2256C145.099 23.2174 145.097 23.2081 145.097 23.1985C145.097 23.189 145.099 23.1796 145.104 23.1713C145.108 23.163 145.115 23.1561 145.123 23.1513C145.131 23.1464 145.141 23.1439 145.15 23.1438L149.647 23.1425C149.657 23.1423 149.666 23.1447 149.674 23.1493C149.683 23.1539 149.69 23.1607 149.695 23.1689L152.424 27.864C152.429 27.8719 152.435 27.8785 152.443 27.883C152.451 27.8876 152.46 27.8899 152.47 27.8899C152.479 27.8899 152.488 27.8876 152.496 27.883C152.504 27.8785 152.511 27.8719 152.516 27.864L155.241 23.1702C155.246 23.162 155.253 23.1552 155.261 23.1506C155.269 23.146 155.279 23.1436 155.288 23.1438Z" fill="white"></path><path d="M56.0297 47.6447L56.7848 47.9718C56.7934 47.9755 56.8011 47.9809 56.8075 47.9877C56.8139 47.9945 56.8188 48.0025 56.822 48.0113C56.8252 48.02 56.8266 48.0294 56.8261 48.0387C56.8256 48.048 56.8231 48.0571 56.819 48.0655C56.1702 49.3385 54.8634 49.9032 53.5014 49.5285C50.5463 48.7159 50.9207 43.8505 54.1148 43.7186C55.3134 43.6694 56.2087 44.1698 56.8006 45.2199C56.805 45.228 56.8077 45.2368 56.8085 45.246C56.8093 45.2552 56.8082 45.2644 56.8052 45.2731C56.8022 45.2818 56.7975 45.2897 56.7913 45.2965C56.785 45.3032 56.7775 45.3086 56.7691 45.3122L56.0113 45.6302C55.9675 45.6487 55.9338 45.6377 55.9101 45.5972C55.4321 44.7995 54.7732 44.4824 53.9335 44.646C52.414 44.9415 52.041 47.08 52.9931 48.1565C53.8521 49.1275 55.39 48.8689 55.9285 47.6842C55.9369 47.6656 55.9521 47.6511 55.971 47.6437C55.99 47.6363 56.011 47.6366 56.0297 47.6447Z" fill="white"></path><path d="M62.6493 49.6705C61.8793 49.684 61.1353 49.3812 60.581 48.8288C60.0268 48.2763 59.7076 47.5194 59.6938 46.7246C59.68 45.9298 59.9727 45.1622 60.5074 44.5906C61.0421 44.019 61.7751 43.6904 62.5452 43.6769C63.3152 43.6634 64.0592 43.9661 64.6134 44.5186C65.1677 45.0711 65.4868 45.828 65.5007 46.6228C65.5145 47.4176 65.2218 48.1852 64.6871 48.7568C64.1524 49.3283 63.4193 49.657 62.6493 49.6705ZM62.6094 48.7633C62.8597 48.762 63.1072 48.7067 63.3379 48.6006C63.5685 48.4945 63.7778 48.3397 63.9538 48.145C64.1297 47.9502 64.2689 47.7194 64.3633 47.4657C64.4578 47.212 64.5057 46.9404 64.5042 46.6663C64.5013 46.1128 64.2978 45.583 63.9384 45.1935C63.579 44.804 63.0931 44.5867 62.5877 44.5893C62.3374 44.5906 62.0899 44.6459 61.8592 44.752C61.6286 44.8581 61.4193 45.013 61.2433 45.2077C61.0674 45.4024 60.9282 45.6332 60.8338 45.8869C60.7393 46.1406 60.6914 46.4123 60.6929 46.6864C60.6958 47.2399 60.8993 47.7696 61.2587 48.1591C61.6182 48.5487 62.104 48.766 62.6094 48.7633Z" fill="white"></path><path d="M112.217 47.3161L111.026 47.3267C110.948 47.3276 110.909 47.2889 110.909 47.2106V46.613C110.909 46.5452 110.943 46.5114 111.01 46.5114L113.116 46.5127C113.168 46.5127 113.197 46.5391 113.201 46.5919C113.243 47.1275 113.198 47.6064 113.067 48.0285C112.556 49.663 110.562 49.9691 109.223 49.3253C107.865 48.6723 107.355 47.0589 107.797 45.6658C108.508 43.4204 111.54 43.0418 112.913 44.8703C112.929 44.8914 112.926 44.9094 112.903 44.9244L112.187 45.398C112.171 45.4076 112.157 45.4054 112.145 45.3914C111.466 44.6069 110.682 44.4011 109.794 44.774C108.543 45.3016 108.226 47.175 109.17 48.1406C109.641 48.6226 110.227 48.8196 110.926 48.7317C111.639 48.6419 112.195 48.1274 112.275 47.3794C112.276 47.3713 112.275 47.363 112.272 47.3553C112.27 47.3475 112.266 47.3404 112.26 47.3344C112.255 47.3284 112.248 47.3237 112.241 47.3205C112.233 47.3174 112.225 47.3159 112.217 47.3161Z" fill="white"></path><path d="M76.9565 47.1209L76.9578 48.6064C76.9578 48.6179 76.9624 48.629 76.9705 48.6371C76.9787 48.6453 76.9897 48.6499 77.0012 48.6499L79.4769 48.6539C79.4826 48.6539 79.4882 48.655 79.4935 48.6572C79.4987 48.6594 79.5035 48.6626 79.5075 48.6666C79.5116 48.6706 79.5148 48.6754 79.5169 48.6807C79.5191 48.686 79.5202 48.6917 79.5202 48.6974V49.4889C79.5202 49.5005 79.5157 49.5115 79.5075 49.5197C79.4994 49.5279 79.4884 49.5325 79.4769 49.5325L76.0359 49.5443C76.0302 49.5443 76.0245 49.5432 76.0193 49.541C76.014 49.5388 76.0092 49.5356 76.0052 49.5316C76.0012 49.5275 75.998 49.5227 75.9958 49.5175C75.9936 49.5122 75.9925 49.5065 75.9925 49.5008L75.9912 43.8479C75.9912 43.8422 75.9923 43.8365 75.9945 43.8312C75.9967 43.8259 75.9999 43.8211 76.0039 43.8171C76.0079 43.8131 76.0127 43.8099 76.018 43.8077C76.0232 43.8055 76.0289 43.8044 76.0345 43.8044L79.4401 43.8123C79.4514 43.8123 79.4622 43.8167 79.4703 43.8245C79.4784 43.8324 79.4831 43.8432 79.4835 43.8545L79.5005 44.6421C79.5007 44.6479 79.4997 44.6537 79.4976 44.6591C79.4955 44.6646 79.4924 44.6695 79.4883 44.6737C79.4843 44.6779 79.4794 44.6812 79.4741 44.6835C79.4687 44.6858 79.463 44.6869 79.4572 44.6869L76.9999 44.683C76.9884 44.683 76.9774 44.6875 76.9692 44.6957C76.9611 44.7039 76.9565 44.7149 76.9565 44.7265L76.9592 46.1368C76.9592 46.1483 76.9637 46.1594 76.9719 46.1675C76.98 46.1757 76.991 46.1803 77.0025 46.1803L79.1472 46.1829C79.1585 46.1829 79.1693 46.1873 79.1774 46.1952C79.1855 46.2031 79.1902 46.2138 79.1906 46.2251L79.205 47.0286C79.2052 47.0344 79.2042 47.0402 79.2021 47.0456C79.2 47.0511 79.1968 47.056 79.1928 47.0602C79.1888 47.0644 79.1839 47.0677 79.1786 47.07C79.1732 47.0722 79.1675 47.0734 79.1617 47.0734L76.9999 47.0774C76.9884 47.0774 76.9774 47.082 76.9692 47.0901C76.9611 47.0983 76.9565 47.1094 76.9565 47.1209Z" fill="white"></path><path d="M84.1112 45.5233L84.1138 49.4441C84.1138 49.5039 84.084 49.5338 84.0245 49.5338H83.2312C83.1761 49.5338 83.1485 49.5065 83.1485 49.452L83.1445 43.8835C83.1445 43.8307 83.1708 43.8044 83.2233 43.8044L84.0442 43.7978C84.1029 43.7978 84.1497 43.8215 84.1847 43.869L87.019 47.7687C87.096 47.8742 87.1346 47.8614 87.1346 47.7304L87.1359 43.8413C87.1359 43.8176 87.1481 43.8057 87.1726 43.8057L88.0565 43.807C88.0663 43.807 88.0756 43.8109 88.0825 43.8178C88.0894 43.8247 88.0933 43.8341 88.0933 43.8439L88.0946 49.456C88.0946 49.5061 88.0692 49.5311 88.0185 49.5311L87.2475 49.5351C87.2011 49.536 87.1617 49.5197 87.1293 49.4863C87.0304 49.386 86.9384 49.277 86.8535 49.1591C85.9622 47.9243 85.0743 46.7036 84.19 45.4969C84.1374 45.4257 84.1112 45.4345 84.1112 45.5233Z" fill="white"></path><path d="M101.189 48.1618L100.667 49.5061C100.664 49.5148 100.658 49.5222 100.65 49.5274C100.642 49.5325 100.633 49.5352 100.624 49.5351L99.6941 49.5417C99.6865 49.5418 99.6791 49.54 99.6723 49.5366C99.6656 49.5331 99.6598 49.528 99.6555 49.5217C99.6513 49.5154 99.6486 49.5082 99.6477 49.5006C99.6469 49.4931 99.6479 49.4854 99.6508 49.4784L101.893 43.8281C101.896 43.8194 101.902 43.812 101.91 43.8068C101.918 43.8016 101.927 43.7989 101.936 43.7991L102.892 43.803C102.901 43.8029 102.911 43.8056 102.918 43.8108C102.926 43.816 102.932 43.8234 102.935 43.8321L105.177 49.4652C105.18 49.4721 105.181 49.4797 105.18 49.4871C105.18 49.4946 105.177 49.5017 105.173 49.5079C105.169 49.5142 105.163 49.5193 105.157 49.5229C105.15 49.5265 105.143 49.5284 105.135 49.5285L104.211 49.543C104.201 49.5431 104.192 49.5402 104.184 49.5347C104.177 49.5293 104.171 49.5216 104.167 49.5127L103.637 48.1605C103.633 48.1518 103.627 48.1444 103.62 48.1392C103.612 48.134 103.603 48.1313 103.593 48.1314L101.232 48.1328C101.223 48.1326 101.214 48.1353 101.206 48.1405C101.198 48.1457 101.192 48.1531 101.189 48.1618ZM101.566 47.2159C101.564 47.2218 101.563 47.2282 101.564 47.2344C101.565 47.2407 101.567 47.2466 101.571 47.2518C101.574 47.2569 101.579 47.2612 101.584 47.2641C101.59 47.267 101.596 47.2686 101.602 47.2687L103.228 47.266C103.235 47.266 103.241 47.2645 103.247 47.2615C103.253 47.2585 103.257 47.2541 103.261 47.2488C103.265 47.2434 103.267 47.2373 103.268 47.2309C103.268 47.2244 103.268 47.2179 103.265 47.2119L102.448 45.0985C102.445 45.0911 102.44 45.0846 102.434 45.0801C102.427 45.0756 102.419 45.0732 102.411 45.0732C102.403 45.0732 102.396 45.0756 102.389 45.0801C102.383 45.0846 102.378 45.0911 102.375 45.0985L101.566 47.2159Z" fill="white"></path><path d="M127.62 47.7317V43.8426C127.62 43.818 127.632 43.8056 127.656 43.8056L128.488 43.7885C128.497 43.7883 128.506 43.79 128.514 43.7933C128.523 43.7967 128.53 43.8017 128.537 43.8081C128.543 43.8145 128.548 43.8221 128.552 43.8305C128.555 43.8389 128.557 43.848 128.557 43.8571V49.4427C128.557 49.5149 128.521 49.55 128.45 49.5483L127.698 49.5324C127.631 49.5307 127.578 49.5025 127.539 49.448L124.646 45.4732C124.594 45.401 124.568 45.4094 124.568 45.4982V49.4586C124.568 49.5069 124.544 49.5316 124.494 49.5324L123.688 49.5377C123.671 49.5377 123.655 49.531 123.643 49.5192C123.632 49.5073 123.625 49.4912 123.625 49.4744L123.621 43.8835C123.621 43.8263 123.649 43.7977 123.705 43.7977C123.925 43.7969 124.16 43.796 124.41 43.7951C124.537 43.7942 124.637 43.8448 124.711 43.9468C125.609 45.1816 126.537 46.4569 127.497 47.7726C127.579 47.886 127.62 47.8724 127.62 47.7317Z" fill="white"></path><path d="M69.7545 47.6539L69.7558 49.5034C69.7558 49.5122 69.7523 49.5206 69.7462 49.5267C69.74 49.5329 69.7317 49.5364 69.723 49.5364L68.843 49.5324C68.8246 49.5324 68.8154 49.5232 68.8154 49.5047V43.8492C68.8154 43.821 68.829 43.807 68.8561 43.807C69.413 43.8096 69.9883 43.8074 70.5819 43.8004C71.0827 43.7933 71.4676 43.8518 71.7364 43.9758C73.4713 44.7779 73.0327 47.543 71.014 47.5615C70.6182 47.565 70.2334 47.5615 69.8596 47.551C69.7895 47.5492 69.7545 47.5835 69.7545 47.6539ZM69.7479 44.7515L69.7584 46.6275C69.7584 46.6439 69.7649 46.6597 69.7765 46.6713C69.7881 46.683 69.8038 46.6895 69.8202 46.6895L70.8617 46.6842C71.1222 46.6828 71.3715 46.5797 71.5547 46.3976C71.738 46.2155 71.8402 45.9694 71.8388 45.7133V45.6447C71.8381 45.5178 71.812 45.3924 71.762 45.2755C71.712 45.1586 71.6391 45.0525 71.5474 44.9633C71.4557 44.8741 71.347 44.8036 71.2275 44.7557C71.1081 44.7078 70.9802 44.6835 70.8512 44.6843L69.8097 44.6895C69.7933 44.6895 69.7776 44.6961 69.766 44.7077C69.7544 44.7193 69.7479 44.7351 69.7479 44.7515Z" fill="white"></path><path d="M95.5874 46.0893L95.5835 43.8716C95.5835 43.8541 95.5904 43.8374 95.6027 43.825C95.615 43.8126 95.6317 43.8057 95.6492 43.8057H96.4845C96.5019 43.8057 96.5186 43.8126 96.5309 43.825C96.5432 43.8374 96.5501 43.8541 96.5501 43.8716L96.5462 49.4665C96.5462 49.484 96.5393 49.5008 96.527 49.5131C96.5146 49.5255 96.4979 49.5325 96.4805 49.5325L95.6505 49.5338C95.6331 49.5338 95.6163 49.5268 95.604 49.5145C95.5917 49.5021 95.5848 49.4853 95.5848 49.4678L95.5874 47.1103C95.5874 47.0929 95.5805 47.0761 95.5682 47.0637C95.5559 47.0513 95.5392 47.0444 95.5218 47.0444L92.8097 47.0457C92.7922 47.0457 92.7755 47.0527 92.7632 47.065C92.7509 47.0774 92.744 47.0942 92.744 47.1117L92.7453 49.4731C92.7453 49.4819 92.7436 49.4906 92.7402 49.4986C92.7368 49.5067 92.7318 49.5141 92.7256 49.5202C92.7194 49.5263 92.712 49.5312 92.7038 49.5344C92.6957 49.5377 92.687 49.5392 92.6783 49.5391L91.8535 49.5153C91.8363 49.515 91.82 49.5079 91.8079 49.4955C91.7959 49.4832 91.7892 49.4666 91.7892 49.4493L91.7773 43.8756C91.7773 43.8581 91.7843 43.8413 91.7966 43.8289C91.8089 43.8166 91.8256 43.8096 91.843 43.8096L92.6704 43.8057C92.6879 43.8057 92.7045 43.8126 92.7169 43.825C92.7292 43.8374 92.7361 43.8541 92.7361 43.8716L92.7492 46.0919C92.7492 46.1094 92.7562 46.1262 92.7685 46.1385C92.7808 46.1509 92.7975 46.1579 92.8149 46.1579L95.5218 46.1552C95.5392 46.1552 95.5559 46.1483 95.5682 46.1359C95.5805 46.1235 95.5874 46.1068 95.5874 46.0893Z" fill="white"></path><path d="M117.413 47.1209L117.41 48.6037C117.41 48.6094 117.411 48.6151 117.414 48.6204C117.416 48.6256 117.419 48.6304 117.423 48.6345C117.427 48.6385 117.432 48.6417 117.437 48.6439C117.442 48.6461 117.448 48.6472 117.454 48.6472L119.962 48.6551C119.974 48.6551 119.985 48.6597 119.993 48.6679C120.001 48.6761 120.005 48.6871 120.005 48.6987L120.004 49.4915C120.004 49.5031 120 49.5142 119.991 49.5223C119.983 49.5305 119.972 49.5351 119.961 49.5351L116.497 49.5364C116.486 49.5364 116.475 49.5318 116.467 49.5236C116.459 49.5155 116.454 49.5044 116.454 49.4929L116.455 43.8518C116.455 43.8403 116.46 43.8292 116.468 43.821C116.476 43.8129 116.487 43.8083 116.499 43.8083L119.925 43.8109C119.937 43.8109 119.948 43.8155 119.956 43.8237C119.964 43.8318 119.969 43.8429 119.969 43.8545L119.975 44.6381C119.975 44.6438 119.974 44.6495 119.972 44.6547C119.97 44.66 119.967 44.6648 119.963 44.6689C119.959 44.6729 119.954 44.6761 119.948 44.6783C119.943 44.6805 119.938 44.6816 119.932 44.6816L117.455 44.6909C117.449 44.6909 117.444 44.692 117.438 44.6942C117.433 44.6964 117.428 44.6996 117.424 44.7036C117.42 44.7076 117.417 44.7124 117.415 44.7177C117.413 44.723 117.412 44.7287 117.412 44.7344V46.1354C117.412 46.1411 117.413 46.1468 117.415 46.1521C117.417 46.1574 117.42 46.1622 117.424 46.1662C117.428 46.1702 117.433 46.1734 117.438 46.1756C117.444 46.1778 117.449 46.179 117.455 46.179L119.634 46.1855C119.645 46.1855 119.656 46.1901 119.664 46.1983C119.673 46.2065 119.677 46.2175 119.677 46.2291L119.68 47.0325C119.68 47.044 119.675 47.0551 119.667 47.0633C119.659 47.0714 119.648 47.076 119.636 47.076L117.456 47.0773C117.451 47.0773 117.445 47.0785 117.44 47.0807C117.434 47.0828 117.43 47.0861 117.426 47.0901C117.422 47.0941 117.418 47.0989 117.416 47.1042C117.414 47.1095 117.413 47.1152 117.413 47.1209Z" fill="white"></path></g><defs><clipPath id="clip0_141_11200"><rect width="160" height="50" fill="white" transform="translate(0 0.803955)"></rect></clipPath></defs></svg>