<svg viewBox="0 0 3000 897" fill="none" xmlns="http://www.w3.org/2000/svg"><path d="M2606.99 35.9234C2630.51 56.3478 2640.99 85.3268 2653.25 113.148C2658.27 124.547 2663.45 135.872 2668.69 147.173C2674.43 159.559 2680.11 171.969 2685.66 184.439C2689.92 193.983 2694.27 203.487 2698.62 212.985C2703.12 222.785 2707.57 232.598 2711.88 242.485C2716.97 254.18 2722.33 265.743 2727.7 277.313C2732.68 288.074 2737.58 298.86 2742.31 309.736C2746.38 319.043 2750.62 328.264 2754.88 337.485C2760.53 349.741 2766.12 362.019 2771.62 374.344C2775.86 383.833 2780.17 393.287 2784.5 402.735C2789.91 414.546 2795.27 426.38 2800.57 438.243C2804.83 447.765 2809.15 457.253 2813.5 466.735C2818.31 477.238 2823.1 487.751 2827.81 498.298C2833.12 510.165 2838.46 522.017 2843.81 533.86C2844.22 534.754 2844.62 535.648 2845.04 536.568C2851.01 549.767 2857.02 562.943 2863.07 576.11C2867.54 585.866 2871.93 595.65 2876.14 605.523C2878.83 611.79 2881.69 617.965 2884.58 624.135C2888.03 631.485 2891.42 638.861 2894.81 646.235C2895.18 647.042 2895.55 647.848 2895.94 648.679C2900.81 659.275 2905.62 669.887 2910.19 680.618C2913.14 687.527 2916.32 694.322 2919.51 701.121C2922.78 708.106 2926.01 715.109 2929.25 722.11C2929.65 722.969 2930.04 723.828 2930.45 724.712C2935.49 735.626 2940.45 746.567 2945.24 757.593C2949.85 768.147 2954.71 778.583 2959.55 789.032C2965.12 801.039 2970.61 813.072 2975.99 825.162C2978.54 830.875 2981.11 836.574 2983.74 842.247C2984.26 843.362 2984.78 844.477 2985.31 845.626C2986.28 847.726 2987.27 849.822 2988.25 851.917C2988.68 852.839 2989.11 853.762 2989.55 854.712C2990.12 855.92 2990.12 855.92 2990.7 857.152C2991.5 859.235 2991.5 859.235 2991.5 862.235C2938.04 862.235 2884.58 862.235 2829.5 862.235C2824.88 851.675 2820.26 841.115 2815.5 830.235C2812.81 824.124 2810.11 818.013 2807.41 811.906C2806.24 809.266 2805.08 806.626 2803.91 803.986C2801.85 799.326 2799.79 794.667 2797.73 790.008C2794.13 781.876 2790.53 773.744 2786.94 765.61C2786.55 764.724 2786.15 763.838 2785.75 762.925C2779.14 747.978 2772.57 733.017 2766 718.051C2761.2 707.107 2756.39 696.168 2751.56 685.235C2751.25 684.534 2750.94 683.833 2750.62 683.111C2750.01 681.725 2749.4 680.339 2748.79 678.953C2748.35 677.95 2748.35 677.95 2747.89 676.927C2747.6 676.27 2747.31 675.612 2747.02 674.935C2742.94 665.699 2738.87 656.457 2734.81 647.215C2732.08 641.011 2729.35 634.807 2726.62 628.604C2724.34 623.422 2722.06 618.239 2719.79 613.056C2715.58 603.494 2711.37 593.938 2707.12 584.4C2702.37 573.747 2697.68 563.07 2693.06 552.36C2688.8 542.492 2684.48 532.661 2680.06 522.86C2675.61 512.969 2671.21 503.054 2666.88 493.11C2661.37 480.49 2655.82 467.89 2650.25 455.298C2643.98 441.12 2637.73 426.933 2631.5 412.735C2619.07 384.405 2606.57 356.112 2593.99 327.847C2587.04 312.206 2580.13 296.545 2573.28 280.857C2572.12 278.212 2570.97 275.567 2569.81 272.923C2569.52 272.259 2569.23 271.595 2568.93 270.911C2563.43 258.327 2557.87 245.774 2552.28 233.229C2547.8 223.168 2543.34 213.094 2538.95 202.995C2536.61 197.657 2534.15 192.423 2531.5 187.235C2523.87 204.198 2516.29 221.181 2508.83 238.214C2506.64 243.202 2504.44 248.188 2502.25 253.173C2501.81 254.181 2501.36 255.19 2500.91 256.229C2496.94 265.234 2492.97 274.235 2489 283.235C2484.73 292.921 2480.45 302.608 2476.19 312.298C2475.76 313.268 2475.33 314.237 2474.89 315.236C2472.45 320.789 2470.01 326.343 2467.58 331.898C2458.86 351.811 2450.08 371.702 2441.24 391.563C2433.23 409.55 2425.31 427.571 2417.41 445.604C2414.61 451.984 2411.81 458.361 2409 464.735C2404.16 475.732 2399.33 486.734 2394.5 497.735C2387.43 513.838 2380.36 529.937 2373.27 546.032C2371.99 548.933 2370.71 551.834 2369.44 554.735C2369 555.735 2368.56 556.734 2368.1 557.764C2365.19 564.394 2362.28 571.027 2359.37 577.661C2351.97 594.536 2344.55 611.403 2337.06 628.235C2336.56 629.359 2336.56 629.359 2336.05 630.505C2335.56 631.617 2335.56 631.617 2335.05 632.751C2326.98 650.883 2319.01 669.058 2311.06 687.241C2299.36 713.994 2287.62 740.728 2275.81 767.431C2269.93 780.711 2264.08 794.001 2258.25 807.298C2257.51 808.987 2256.77 810.677 2256.03 812.366C2255.48 813.608 2255.48 813.608 2254.93 814.874C2254.2 816.528 2253.47 818.181 2252.75 819.835C2250.92 823.993 2249.1 828.151 2247.27 832.309C2245.5 836.361 2243.72 840.411 2241.94 844.461C2241.28 845.966 2240.61 847.472 2239.95 848.978C2239.05 851.034 2238.15 853.088 2237.25 855.142C2236.74 856.3 2236.23 857.458 2235.7 858.651C2234.5 861.235 2234.5 861.235 2233.5 862.235C2231.49 862.332 2229.47 862.357 2227.46 862.356C2226.14 862.357 2224.83 862.358 2223.48 862.36C2222.01 862.356 2220.54 862.353 2219.07 862.349C2217.53 862.349 2215.99 862.349 2214.45 862.349C2210.27 862.35 2206.08 862.344 2201.9 862.337C2197.53 862.331 2193.16 862.33 2188.79 862.329C2180.51 862.326 2172.23 862.318 2163.95 862.307C2154.52 862.296 2145.1 862.291 2135.68 862.286C2116.28 862.275 2096.89 862.258 2077.5 862.235C2078.29 857.913 2079.7 854.162 2081.5 850.173C2081.96 849.136 2081.96 849.136 2082.43 848.078C2083.45 845.795 2084.47 843.515 2085.5 841.235C2086.22 839.63 2086.94 838.024 2087.65 836.418C2093.17 824.095 2098.8 811.826 2104.46 799.568C2109.17 789.381 2113.8 779.173 2118.19 768.848C2121.14 761.941 2124.32 755.147 2127.51 748.35C2130.78 741.365 2134.01 734.362 2137.25 727.36C2137.65 726.502 2138.04 725.643 2138.45 724.759C2143.49 713.851 2148.45 702.917 2153.23 691.895C2157.92 681.153 2162.89 670.54 2167.82 659.909C2172.56 649.681 2177.28 639.452 2181.6 629.037C2184.37 622.384 2187.44 615.877 2190.51 609.355C2193.74 602.453 2196.93 595.53 2200.12 588.61C2200.52 587.76 2200.91 586.909 2201.32 586.032C2206.84 574.064 2212.3 562.068 2217.67 550.028C2221.89 540.571 2226.18 531.15 2230.5 521.735C2235.91 509.933 2241.26 498.107 2246.56 486.252C2251.26 475.721 2256.06 465.232 2260.87 454.745C2264.74 446.287 2268.6 437.825 2272.35 429.308C2274.59 424.226 2276.9 419.172 2279.21 414.122C2279.55 413.382 2279.89 412.641 2280.24 411.878C2280.95 410.34 2281.66 408.801 2282.36 407.263C2290.13 390.341 2290.13 390.341 2297.5 373.242C2300.31 366.532 2303.4 359.96 2306.5 353.377C2309.81 346.3 2313.09 339.204 2316.38 332.11C2316.77 331.253 2317.17 330.396 2317.58 329.513C2322.4 319.084 2327.19 308.653 2331.6 298.04C2334.09 292.064 2336.82 286.211 2339.57 280.354C2342.96 273.125 2346.29 265.866 2349.62 258.61C2349.99 257.807 2350.36 257.004 2350.74 256.176C2356.1 244.522 2361.39 232.842 2366.62 221.13C2370.86 211.639 2375.17 202.184 2379.5 192.735C2384.38 182.089 2389.22 171.429 2394 160.735C2399.11 149.294 2404.3 137.893 2409.52 126.503C2413.94 116.878 2418.31 107.237 2422.62 97.5683C2424.44 93.4942 2426.27 89.4252 2428.1 85.3561C2428.99 83.3648 2429.88 81.3718 2430.77 79.3766C2443.18 51.4482 2462.79 29.6711 2491.52 17.9894C2530.34 3.19777 2574.96 8.82851 2606.99 35.9234Z" fill="white"></path><path d="M1696 11.0031C1813 10.0031 1886.5 39.0029 1955.5 73.4984C1979 85.2484 2005.5 127.498 1983 166.498C1951.75 212.498 1911.5 207.498 1861.5 177.005C1809.17 145.09 1735.5 138.005 1716 136.005C1696.5 134.005 1549 131.503 1540 238.003C1531 344.503 1687.5 368.003 1720.5 376.503C1753.5 385.003 1959.69 418.503 2014 521.505C2072 631.505 2038.5 776.504 1921.5 843.004C1804.5 909.504 1660.5 888.504 1562.5 865.004C1482.5 845.821 1394.5 783.838 1359.5 755.004L1447.5 653.504C1486.5 684.003 1528 714.684 1599 741.504C1644 758.503 1845.5 803.503 1889.5 679.004C1925.5 555.504 1762.5 529.505 1732 521.505C1701.5 513.505 1641 500.505 1578.5 481.005C1516 461.505 1365.5 404.003 1396.5 213.003C1426 58.0031 1579 12.0031 1696 11.0031Z" fill="white"></path><path d="M174.5 28.5049H8L309.5 861.503H461L673.5 250.503L886 861.503H1038.5L1340.5 28.5046L1182.5 28.5049L961.5 660.503C961.5 660.503 768.5 89.005 757.5 61.0034C746.5 33.0018 711.366 9.60562 675 10.005C638.634 10.4045 605.375 35.0034 594 61.0034C582.625 87.0034 385 660.505 385 660.505L174.5 28.5049Z" fill="white"></path><path d="M2475.41 595.025C2476.87 595.021 2478.33 595.015 2479.79 595.009C2483.72 594.995 2487.64 595 2491.57 595.01C2495.7 595.018 2499.83 595.01 2503.96 595.006C2510.9 595 2517.83 595.007 2524.76 595.022C2532.75 595.038 2540.74 595.033 2548.73 595.016C2555.62 595.003 2562.51 595.001 2569.4 595.009C2573.5 595.013 2577.6 595.014 2581.7 595.004C2585.56 594.995 2589.42 595.001 2593.28 595.019C2594.68 595.023 2596.09 595.022 2597.49 595.015C2617.62 594.928 2633.64 601.326 2648.24 615.206C2660.96 628.609 2666 645.098 2665.83 663.223C2665.23 682.075 2657.61 697.576 2644.05 710.635C2629.41 723.106 2613.27 726.885 2594.44 726.817C2592.99 726.823 2591.55 726.83 2590.1 726.838C2586.22 726.855 2582.33 726.854 2578.44 726.849C2575.18 726.846 2571.92 726.852 2568.66 726.858C2560.95 726.872 2553.24 726.87 2545.54 726.859C2537.63 726.847 2529.72 726.861 2521.81 726.888C2514.98 726.911 2508.15 726.917 2501.32 726.911C2497.26 726.908 2493.2 726.91 2489.14 726.927C2485.31 726.943 2481.49 726.939 2477.67 726.92C2475.62 726.915 2473.58 726.929 2471.53 726.944C2451.34 726.786 2435.43 719.628 2421.35 705.413C2420.67 704.754 2419.99 704.095 2419.29 703.417C2407.6 691.286 2403.84 674.783 2404.01 658.433C2404.54 640.431 2411.71 625.167 2424.35 612.413C2439.44 599.318 2455.76 594.931 2475.41 595.025Z" fill="white"></path></svg>
